<svg id="Layer_1" data-name="Layer 1" xmlns="http://www.w3.org/2000/svg" viewBox="0 0 440.1 360"><defs><style>.cls-1{fill:#fff;}.cls-2{fill:#e61d40;}.cls-3{fill:#b52038;}.cls-4{fill:#2a2323;}</style></defs><path d="M3.77,88V70a24.67,24.67,0,0,0,1.1-3.38A77.77,77.77,0,0,1,79,1.73c44.74-1.47,81.71,35.55,79.8,80.4-.37,8.54-2.57,17-3.9,25.39,35-18.53,80.48-25.74,130.56-.41-7.72-24.88-5.73-48.4,8.69-69.74S329.23,4.25,355.05,3C398.84.85,436,35.81,436.33,79c.17,22-7.4,41.26-23.33,56.58-22,21.15-48.3,26.48-78.41,18.86,1.2,2.18,1.86,3.37,2.51,4.57,16.83,31.23,22,64.25,12.59,98.54-13.81,50.12-46.26,82.34-96.58,96.13-7.27,2-14.79,3.08-22.19,4.59H210.49a7.87,7.87,0,0,0-2.15-.88c-36.43-3.34-66.93-18.79-90.11-46.82-32.49-39.3-40.11-83.77-23.48-132,3-8.71,7.52-16.9,11.42-25.52l-4.53,1.07c-41.81,10-80.4-11-94.25-51.63C5.8,97.81,5,92.86,3.77,88Z"/><path class="cls-1" d="M321.72,191.37a27,27,0,0,1-3.08,3.59c-3.63,4.11-7.32,8.15-11,12.22a1.84,1.84,0,0,0-.52,1.47q.5,6.69.87,13.4c0,.68.32.85.89.85l.27,0c.72.08,1.7-.24,2.08.27s-.08,1.33-.18,2c-.64,4.61-1.3,9.22-1.95,13.83-.17,1.2-.34,1.39-1.68,1.17-.92-.14-1.08.23-1.18,1-.31,2.41-.66,4.82-1,7.23-.08.5-.08.74.56.8,1.34.14,2.68.25,4,.27.45,0,.61.06.58.6-.27,4.54-.48,9.07-.72,13.61-.05,1-.18,2-.19,3,0,.56-.25.66-.72.62l-5-.4c-1.91-.15-3.82-.34-5.73-.5l-10.93-.86c-3.56-.28-7.11-.55-10.66-.88-1.13-.1-2,.56-2.91.91a28.82,28.82,0,0,1-11.37,1.7,27.12,27.12,0,0,1-10.54-2.55c-1.43-.66-3-.84-4.41-1.66-.33-.19-.61.21-.85.4a19.88,19.88,0,0,1-5.07,3A23.61,23.61,0,0,1,230,268.09a21.55,21.55,0,0,1-12.94-5.4,18.57,18.57,0,0,1-3.46-4c-.39-.65-.7-.63-1.14-.07a21.66,21.66,0,0,1-11.17,7.14,24,24,0,0,1-19.9-3.19,1.35,1.35,0,0,0-1.37-.06l-11.91,4.38c-1.33.49-2.66,1-4,1.45-.26.09-.56.31-.86.06l-2.49-8.36c-.08-.26-.15-.58-.47-.62s-.3.32-.42.51c-1.72,2.7-3.42,5.41-5.17,8.2-1.24-1.72-2.44-3.36-3.63-5q-1.51-2.11-3-4.22c-.49-.66-.68-.64-1,.16-1,2.56-2,5.12-2.91,7.71-.27.74-.5.87-1.27.59-5.9-2.14-11.83-4.23-17.75-6.34-1.64-.58-1.66-.59-1-2.14q3.87-9.27,7.77-18.54,2.9-6.9,5.79-13.8c.46-1.09.45-1.09-.63-1.47-6-2.14-12-4.29-17.94-6.4-.62-.21-.56-.45-.37-.89,2.16-5.06,4.33-10.12,6.46-15.2q4.56-10.9,9.09-21.84c.76-1.83,1.55-3.66,2.37-5.59,1.58,2.33,3.1,4.54,4.61,6.76,2.25,3.28,4.51,6.55,6.72,9.85.5.74.73.47,1.08-.07q5.13-7.87,10.29-15.74l2.21-3.36,2.32,5.62q3,7.2,6,14.41c.11.28.24.54.36.81s.06.56.42.47.25-.39.26-.62c.15-3.47.28-6.94.43-10.42,0-1.15.14-2.31.17-3.47,0-.58.38-.53.75-.51l4.74.31,11,.83c1.13.08,2.25.18,3.38.24.45,0,.56.23.52.63-.07.76-.12,1.52-.17,2.28,0,.21-.11.48.08.6s.46,0,.67-.16a22.26,22.26,0,0,1,7.68-3.14,24.78,24.78,0,0,1,9.44-.05,27.07,27.07,0,0,1,5.52,1.53,3.11,3.11,0,0,0,1.71,0c5.17-.81,10.35-1.62,15.5-2.49,1-.17,1,.38,1.09,1,.29,1.87.56,3.73.85,5.6,0,.22-.07.56.26.6s.41-.2.56-.42l3.93-5.66c1-1.45,2-2.88,3-4.35.32-.49.53-.37.91-.1Q247,179,251.1,181.9c.24.17.46.49.79.31s.13-.5.13-.76c0-2,0-2,2-2,3.72.05,7.44.18,11.16.27,4.33.1,8.66.18,13,.3,2.32.06,4.64.17,6.95.28a.79.79,0,0,0,.71-.32c.41-.48.72-.44,1.15.05,2.6,2.95,5.23,5.87,7.86,8.8.85,1,.84.94,1.57-.07,2.7-3.74,5.42-7.47,8.12-11.22.3-.42.47-.39.83-.08q5.77,4.94,11.56,9.83Zm-108.67,48-.13-.63c.07-.22-.07-.35-.19-.48l-.09-.29-.15-.24a4.26,4.26,0,0,0-.46-1.2.61.61,0,0,0-.31-.6,10.57,10.57,0,0,0-.56-1,19.64,19.64,0,0,0-30.94-2.54,16,16,0,0,0-4.19,9.06,1.27,1.27,0,0,0-.18,1.18,14.14,14.14,0,0,0,0,3.44c-.28.21.26.78-.36.84l-9.73-23.77c-.3.43-.46.65-.61.88-3.69,5.64-7.4,11.27-11.07,16.92-.44.67-.66.73-1.11,0-1.11-1.71-2.3-3.38-3.45-5.07l-6.6-9.68c-.13-.19-.2-.49-.52-.43s-.19.28-.26.44c-2.06,4.88-4.14,9.76-6.19,14.65-2.32,5.54-4.61,11.09-7,16.61-.29.69,0,.86.5,1l9.92,3.5c2,.72,2,.72,2.84-1.34,1.28-3.33,2.55-6.65,3.79-10,.28-.75.49-.7.89-.1.68,1,1.41,2,2.12,3,1.67,2.33,3.35,4.66,5,7,.3.42.5.44.78,0,.49-.84,1-1.65,1.56-2.48l4.77-7.6c.12-.2.18-.51.48-.47s.2.34.26.52c.45,1.42.89,2.85,1.33,4.28l2.46,8c.13.4.21.73.8.51q6.39-2.37,12.8-4.66c.77-.27.93-.54.61-1.29a4,4,0,0,1-.66-2.1,4.52,4.52,0,0,1,.44.36c5.18,6,11.72,8.18,19.42,6.56A18,18,0,0,0,211.55,253l.12-.23a.31.31,0,0,0,.06-.13l.14-.23.23-.51.1-.23.53-1.37c.14-.13.26-.27.19-.48l.13-.64c.18-.1.31-.23.19-.47l.07-.53c.21,0,.2-.77.59-.17l0,.9a.8.8,0,0,0,.21.84l.17,1a.33.33,0,0,0,.12.39l.07.34a.42.42,0,0,0,.19.48l.32,1,.12.24a.29.29,0,0,0,0,.13l.11.26a16.11,16.11,0,0,0,6.63,7.82A19.67,19.67,0,0,0,235.23,264a16.17,16.17,0,0,0,11.7-6.89,23.09,23.09,0,0,0,3.87-12c.08-1.18,0-2.37,0-3.56h.28a11.21,11.21,0,0,0,1.31,2.08c2.23,2.73,5.27,4,8.58,4.91a14.09,14.09,0,0,1,4.56,1.56,2,2,0,0,1-.11,3.46,4.38,4.38,0,0,1-1.82.55,16.5,16.5,0,0,1-8.65-1.43c-.52-.22-.75-.23-.91.38-.57,2.3-1.16,4.61-1.79,6.9-.14.51-.06.76.44,1a25.39,25.39,0,0,0,18.39,1.25c4-1.21,7.21-3.55,8.79-7.64.05-.11.1-.23.3-.18.06,1.94-.22,3.88-.3,5.82,0,.46,0,.81.61.86,4.5.34,9,.71,13.5,1.08l10.69.86c.46,0,1.06.3,1.1-.61.11-2.8.25-5.61.42-8.41,0-.61-.15-.79-.75-.82-4.08-.21-8.17-.46-12.25-.66-.65,0-.86-.23-.8-.87.09-1,.12-1.95.17-2.92,0-.48.15-.67.72-.62,2.43.24,4.87.39,7.31.6.4,0,.61,0,.67-.48.34-2.51.71-5,1.08-7.53.08-.54-.08-.75-.66-.78-2.59-.13-5.18-.33-7.77-.45-.6,0-.83-.2-.77-.81a14.43,14.43,0,0,0,.12-2.37c0-.85.29-1,1.08-1,3.47.27,6.94.48,10.42.72.47,0,.73-.06.8-.58.37-2.69.74-5.38,1.15-8.07.09-.61-.17-.73-.69-.77-2.59-.16-5.18-.36-7.76-.53-5-.33-10.06-.62-15.08-1-1-.08-1.12.2-1.16,1q-.48,8.22-1,16.45c-.11,1.77-.24,3.54-.37,5.31a11.13,11.13,0,0,0-3.43-5.6c-2.49-2.2-5.54-3.14-8.67-3.92a14.14,14.14,0,0,1-3.93-1.17,2,2,0,0,1-1.15-1.84,2.09,2.09,0,0,1,1.29-2,5,5,0,0,1,2.51-.38,18.14,18.14,0,0,1,7.17,2c.79.41,1,.14,1.14-.53.62-2.3,1.25-4.59,1.92-6.87.15-.53-.05-.72-.48-.87-.8-.3-1.58-.63-2.39-.92a24.38,24.38,0,0,0-16.59-.37,10.76,10.76,0,0,0-7.53,8.46c0,.27,0,.63-.32.8-.23-.1-.16-.31-.19-.47a47.42,47.42,0,0,0-1.53-5.64c-.16-.44-.28-.83-.94-.74-3.47.47-7,.91-10.44,1.33-.79.09-.88.43-.66,1.1a33.8,33.8,0,0,1,1.64,13.35,14.52,14.52,0,0,1-2,7.14,4.15,4.15,0,0,1-3.59,2c-2.72,0-4.69-1.64-5.46-4.53a17.39,17.39,0,0,1,.18-8.6,61.66,61.66,0,0,1,3.65-10.23c.28-.63.14-.84-.46-1q-4.93-1.67-9.85-3.39c-.5-.17-.72,0-.91.43-.54,1.22-1.16,2.42-1.69,3.65a41,41,0,0,0-2.59,7.12.69.69,0,0,0-.23.64l-.07.35a.51.51,0,0,0-.15.56l-.14.81a.58.58,0,0,0-.21.66l-.05.53a1.68,1.68,0,0,0-.25,1.13c0,.3-.06.6-.08.9-.26.06-.09.61-.53.47l-.1-1.19a.49.49,0,0,0-.14-.57l-.12-.71C213.36,239.59,213.23,239.46,213.05,239.35Zm-26.68-33.3a2.68,2.68,0,0,1,.19.36,16.5,16.5,0,0,0,7.79,10.83,25,25,0,0,0,14,3.67,19.43,19.43,0,0,0,8.07-1.8c.54-.25.71-.48.46-1.11-1-2.55-2-5.12-2.89-7.71-.27-.76-.56-.8-1.27-.58-3.68,1.15-7.2.91-10.27-1.66a6.93,6.93,0,0,1-2.33-7,6.41,6.41,0,0,1,5.13-5.44,9.39,9.39,0,0,1,9,2.25c.57.54.83.46,1.18-.17s.85-1.41,1.27-2.12l1.87-3.08a25.34,25.34,0,0,1,.89,3.87q1.08,6.22,2.18,12.44L223.73,221c.09.53.22.89.91.76q5-.9,10-1.74c.54-.09.72-.35.64-.88-.27-1.68-.52-3.37-.77-5.06s-.45-3.11-.71-4.91c.43.39.67.6.9.83,3.53,3.42,7.08,6.84,10.58,10.28.57.57.93.64,1.53,0,2.48-2.49,5-4.93,7.52-7.38.29-.29.6-.56,1-.95,0,.4,0,.63,0,.86-.05,2-.09,3.91-.16,5.86,0,.55.1.81.75.83,4.73.15,9.46.35,14.19.52,3.39.12,6.78.21,10.17.34.63,0,.87-.13.87-.79,0-2.75,0-5.5.07-8.25,0-.64-.23-.76-.8-.76-1.8,0-3.6-.08-5.4-.11-2.32,0-4.64-.06-7-.06-.55,0-.75-.15-.73-.73.05-1,0-2,0-2.93,0-.53.13-.77.72-.75,2.38.12,4.76.17,7.14.28.56,0,.83-.08.88-.71.19-2.37.4-4.74.67-7.11.09-.82-.14-1.06-1-1.06-2.47,0-5-.05-7.42-.05-.64,0-.87-.22-.84-.86.05-.85,0-1.71,0-2.57,0-.54.16-.75.74-.73q4.08.1,8.16.15a2,2,0,0,1,1.41.54l12.46,11.35a1.58,1.58,0,0,1,.6,1.35c0,1.28,0,2.56,0,3.85,0,3,.05,6,.08,9.07,0,.49.06.89.74.88q5.58-.06,11.18-.06c.65,0,.89-.14.84-.88-.29-4.05-.5-8.1-.76-12.15a1.86,1.86,0,0,1,.48-1.5q5.93-6.56,11.81-13.15c.79-.87.79-.86-.14-1.65-3-2.53-6-5-8.93-7.61-.64-.56-.9-.38-1.31.19-2.82,4-5.67,7.88-8.5,11.82-.34.47-.53.63-1,.08-3-3.34-6-6.64-8.89-10-.36-.41-.55-.34-.87,0-.86.82-1.74,1.63-2.62,2.43l-2.8,2.54-.22-.11c.18-1.8.34-3.61.56-5.41.08-.66-.05-.92-.78-.93q-11.6-.24-23.18-.54c-.56,0-.74.14-.75.71,0,2.81-.12,5.62-.17,8.43q-.16,8.52-.31,17c0,.62-.17.69-.67.34q-5.86-4.08-11.75-8.12c-.53-.36-.57-.62-.17-1.13,1.44-1.81,2.83-3.67,4.25-5.51,1.71-2.22,3.43-4.44,5.13-6.67.22-.28.62-.55,0-1-2.83-2-5.63-4-8.44-6-.43-.32-.67-.2-.95.22-1.11,1.64-2.25,3.26-3.38,4.89l-6.93,10c-.13.2-.24.49-.51.48s-.21-.32-.24-.51c-.6-3.92-1.22-7.84-1.76-11.77-.12-.86-.41-1-1.24-.89-3.27.57-6.56,1.07-9.85,1.58-1.35.2-1.34.18-1.17,1.45,0,.2.19.45-.06.58s-.37-.12-.54-.23A22.1,22.1,0,0,0,205.6,184c-7-.18-12.52,2.48-16.43,8.34a27.14,27.14,0,0,0-2.17,4.39,4.24,4.24,0,0,1-.05-.93c.23-3.71.46-7.43.72-11.14,0-.52-.13-.72-.63-.75L176,183.14c-.55,0-.77.16-.78.72,0,1.19-.09,2.38-.14,3.57-.31,6.86-.6,13.72-.93,20.58a32.52,32.52,0,0,1-.22,4.39c-.38-.2-.43-.52-.55-.79l-5.92-14.35q-3.15-7.65-6.3-15.31c-.1-.22-.09-.61-.44-.62s-.35.32-.47.51q-5.58,8.49-11.12,17c-.41.63-.6.78-1.09.06q-4.94-7.32-10-14.6c-.16-.24-.24-.66-.6-.6s-.3.43-.41.68l-6.8,16.19q-3.07,7.34-6.16,14.66c-.18.42-.54.88.24,1.16,3.8,1.32,7.6,2.64,11.39,4,.61.22.85.11,1.06-.49,1.13-3.06,2.29-6.1,3.44-9.15.37-.95.76-1.89,1.18-2.92.18.21.26.3.33.4q3.63,5.06,7.25,10.12c.4.57.58.59,1,0,2-3.3,4.12-6.56,6.18-9.84.14-.22.19-.6.51-.54s.28.43.36.68c1.24,4,2.49,8,3.7,12.07.19.62.43.72,1,.49,3.75-1.38,7.51-2.72,11.25-4.11.55-.2.81-.19.76.48a14,14,0,0,1-.08,1.73c-.18.84.08,1.06.91,1.09,3.38.12,6.77.29,10.15.48.6,0,.71-.17.74-.71.16-3.08.36-6.15.56-9.23C186.13,209.34,186.25,207.76,186.37,206.05Z"/><path class="cls-2" d="M186.37,206.05c-.12,1.71-.24,3.29-.34,4.86-.2,3.08-.4,6.15-.56,9.23,0,.54-.14.75-.74.71-3.38-.19-6.77-.36-10.15-.48-.83,0-1.09-.25-.91-1.09a14,14,0,0,0,.08-1.73c.05-.67-.21-.68-.76-.48-3.74,1.39-7.5,2.73-11.25,4.11-.6.23-.84.13-1-.49-1.21-4-2.46-8-3.7-12.07-.08-.25-.07-.63-.36-.68s-.37.32-.51.54c-2.06,3.28-4.15,6.54-6.18,9.84-.39.63-.57.61-1,0q-3.62-5.07-7.25-10.12c-.07-.1-.15-.19-.33-.4-.42,1-.81,2-1.18,2.92-1.15,3.05-2.31,6.09-3.44,9.15-.21.6-.45.71-1.06.49-3.79-1.37-7.59-2.69-11.39-4-.78-.28-.42-.74-.24-1.16q3.08-7.33,6.16-14.66l6.8-16.19c.11-.25.14-.63.41-.68s.44.36.6.6q5,7.29,10,14.6c.49.72.68.57,1.09-.06q5.53-8.51,11.12-17c.12-.19.19-.52.47-.51s.34.4.44.62q3.17,7.65,6.3,15.31l5.92,14.35c.12.27.17.59.55.79a32.52,32.52,0,0,0,.22-4.39c.33-6.86.62-13.72.93-20.58.05-1.19.11-2.38.14-3.57,0-.56.23-.76.78-.72l11.06.79c.5,0,.67.23.63.75-.26,3.71-.49,7.43-.72,11.14a4.24,4.24,0,0,0,.05.93,27.14,27.14,0,0,1,2.17-4.39c3.91-5.86,9.46-8.52,16.43-8.34a22.1,22.1,0,0,1,11.62,3.43c.17.11.31.36.54.23s.08-.38.06-.58c-.17-1.27-.18-1.25,1.17-1.45,3.29-.51,6.58-1,9.85-1.58.83-.14,1.12,0,1.24.89.54,3.93,1.16,7.85,1.76,11.77,0,.19-.05.5.24.51s.38-.28.51-.48l6.93-10c1.13-1.63,2.27-3.25,3.38-4.89.28-.42.52-.54.95-.22,2.81,2,5.61,4,8.44,6,.57.41.17.68,0,1-1.7,2.23-3.42,4.45-5.13,6.67-1.42,1.84-2.81,3.7-4.25,5.51-.4.51-.36.77.17,1.13q5.9,4,11.75,8.12c.5.35.66.28.67-.34q.13-8.52.31-17c.05-2.81.14-5.62.17-8.43,0-.57.19-.72.75-.71q11.6.3,23.18.54c.73,0,.86.27.78.93-.22,1.8-.38,3.61-.56,5.41l.22.11,2.8-2.54c.88-.8,1.76-1.61,2.62-2.43.32-.31.51-.38.87,0,2.94,3.34,5.94,6.64,8.89,10,.47.55.66.39,1-.08,2.83-3.94,5.68-7.87,8.5-11.82.41-.57.67-.75,1.31-.19,2.95,2.57,5.94,5.08,8.93,7.61.93.79.93.78.14,1.65q-5.89,6.59-11.81,13.15a1.86,1.86,0,0,0-.48,1.5c.26,4.05.47,8.1.76,12.15.05.74-.19.88-.84.88q-5.6,0-11.18.06c-.68,0-.74-.39-.74-.88,0-3-.05-6.05-.08-9.07,0-1.29,0-2.57,0-3.85a1.58,1.58,0,0,0-.6-1.35l-12.46-11.35a2,2,0,0,0-1.41-.54q-4.08,0-8.16-.15c-.58,0-.75.19-.74.73,0,.86,0,1.72,0,2.57,0,.64.2.86.84.86,2.47,0,4.95.08,7.42.05.83,0,1.06.24,1,1.06-.27,2.37-.48,4.74-.67,7.11,0,.63-.32.74-.88.71-2.38-.11-4.76-.16-7.14-.28-.59,0-.74.22-.72.75,0,1,0,2,0,2.93,0,.58.18.73.73.73,2.32,0,4.64,0,7,.06,1.8,0,3.6.1,5.4.11.57,0,.81.12.8.76-.06,2.75-.07,5.5-.07,8.25,0,.66-.24.82-.87.79-3.39-.13-6.78-.22-10.17-.34-4.73-.17-9.46-.37-14.19-.52-.65,0-.77-.28-.75-.83.07-1.95.11-3.91.16-5.86,0-.23,0-.46,0-.86-.42.39-.73.66-1,.95-2.51,2.45-5,4.89-7.52,7.38-.6.6-1,.53-1.53,0-3.5-3.44-7-6.86-10.58-10.28-.23-.23-.47-.44-.9-.83.26,1.8.48,3.35.71,4.91s.5,3.38.77,5.06c.08.53-.1.79-.64.88q-5,.84-10,1.74c-.69.13-.82-.23-.91-.76l-2.13-12.27q-1.09-6.22-2.18-12.44a25.34,25.34,0,0,0-.89-3.87l-1.87,3.08c-.42.71-.88,1.39-1.27,2.12s-.61.71-1.18.17a9.39,9.39,0,0,0-9-2.25,6.41,6.41,0,0,0-5.13,5.44,6.93,6.93,0,0,0,2.33,7c3.07,2.57,6.59,2.81,10.27,1.66.71-.22,1-.18,1.27.58.91,2.59,1.88,5.16,2.89,7.71.25.63.08.86-.46,1.11a19.43,19.43,0,0,1-8.07,1.8,25,25,0,0,1-14-3.67,16.5,16.5,0,0,1-7.79-10.83A2.68,2.68,0,0,0,186.37,206.05Z"/><path class="cls-2" d="M214.12,241.82c0-.3,0-.6.08-.9.25-.33.58-.65.25-1.13,0-.17,0-.35,0-.53.38-.12.35-.37.22-.66,0-.27.09-.54.14-.81.36-.1.41-.29.15-.56l.07-.35c.34-.11.3-.37.23-.64a41,41,0,0,1,2.59-7.12c.53-1.23,1.15-2.43,1.69-3.65.19-.45.41-.6.91-.43q4.92,1.72,9.85,3.39c.6.21.74.42.46,1a61.66,61.66,0,0,0-3.65,10.23,17.39,17.39,0,0,0-.18,8.6c.77,2.89,2.74,4.52,5.46,4.53a4.15,4.15,0,0,0,3.59-2,14.52,14.52,0,0,0,2-7.14,33.8,33.8,0,0,0-1.64-13.35c-.22-.67-.13-1,.66-1.1,3.48-.42,7-.86,10.44-1.33.66-.09.78.3.94.74a47.42,47.42,0,0,1,1.53,5.64c0,.16,0,.37.19.47.34-.17.27-.53.32-.8a10.76,10.76,0,0,1,7.53-8.46,24.38,24.38,0,0,1,16.59.37c.81.29,1.59.62,2.39.92.43.15.63.34.48.87-.67,2.28-1.3,4.57-1.92,6.87-.18.67-.35.94-1.14.53a18.14,18.14,0,0,0-7.17-2,5,5,0,0,0-2.51.38,2.09,2.09,0,0,0-1.29,2,2,2,0,0,0,1.15,1.84,14.14,14.14,0,0,0,3.93,1.17c3.13.78,6.18,1.72,8.67,3.92a11.13,11.13,0,0,1,3.43,5.6c.13-1.77.26-3.54.37-5.31q.53-8.24,1-16.45c0-.83.19-1.11,1.16-1,5,.4,10.05.69,15.08,1,2.58.17,5.17.37,7.76.53.52,0,.78.16.69.77-.41,2.69-.78,5.38-1.15,8.07-.07.52-.33.62-.8.58-3.48-.24-6.95-.45-10.42-.72-.79-.06-1.12.12-1.08,1a14.43,14.43,0,0,1-.12,2.37c-.06.61.17.78.77.81,2.59.12,5.18.32,7.77.45.58,0,.74.24.66.78-.37,2.51-.74,5-1.08,7.53-.06.45-.27.51-.67.48-2.44-.21-4.88-.36-7.31-.6-.57-.05-.7.14-.72.62-.05,1-.08,1.95-.17,2.92-.06.64.15.84.8.87,4.08.2,8.17.45,12.25.66.6,0,.79.21.75.82-.17,2.8-.31,5.61-.42,8.41,0,.91-.64.65-1.1.61L294,262.17c-4.5-.37-9-.74-13.5-1.08-.65,0-.63-.4-.61-.86.08-1.94.36-3.88.3-5.82-.2,0-.25.07-.3.18-1.58,4.09-4.76,6.43-8.79,7.64A25.39,25.39,0,0,1,252.7,261c-.5-.22-.58-.47-.44-1,.63-2.29,1.22-4.6,1.79-6.9.16-.61.39-.6.91-.38a16.5,16.5,0,0,0,8.65,1.43,4.38,4.38,0,0,0,1.82-.55,2,2,0,0,0,.11-3.46,14.09,14.09,0,0,0-4.56-1.56c-3.31-.87-6.35-2.18-8.58-4.91a11.21,11.21,0,0,1-1.31-2.08h-.28c0,1.19.07,2.38,0,3.56a23.09,23.09,0,0,1-3.87,12,16.17,16.17,0,0,1-11.7,6.89,19.67,19.67,0,0,1-13.29-2.55,16.11,16.11,0,0,1-6.63-7.82c0-.09-.08-.17-.11-.26a.29.29,0,0,1,0-.13L215,253c-.11-.33-.22-.66-.32-1,.14-.24.06-.39-.19-.48l-.07-.34c.25-.22.1-.32-.12-.39-.06-.33-.11-.66-.17-1,.1-.32.24-.66-.21-.84l0-.9a.5.5,0,0,0,.16-.5,11.54,11.54,0,0,1,.17-5A.73.73,0,0,0,214.12,241.82Z"/><path class="cls-2" d="M211.73,252.68a.31.31,0,0,1-.06.13l-.12.23a18,18,0,0,1-12.45,9.12c-7.7,1.62-14.24-.57-19.42-6.56a4.52,4.52,0,0,0-.44-.36,4,4,0,0,0,.66,2.1c.32.75.16,1-.61,1.29q-6.42,2.28-12.8,4.66c-.59.22-.67-.11-.8-.51l-2.46-8c-.44-1.43-.88-2.86-1.33-4.28-.06-.18,0-.49-.26-.52s-.36.27-.48.47l-4.77,7.6c-.52.83-1.07,1.64-1.56,2.48-.28.47-.48.45-.78,0-1.66-2.34-3.34-4.67-5-7-.71-1-1.44-2-2.12-3-.4-.6-.61-.65-.89.1-1.24,3.34-2.51,6.66-3.79,10-.79,2.06-.81,2.06-2.84,1.34l-9.92-3.5c-.53-.18-.79-.35-.5-1,2.35-5.52,4.64-11.07,7-16.61,2.05-4.89,4.13-9.77,6.19-14.65.07-.16,0-.4.26-.44s.39.24.52.43l6.6,9.68c1.15,1.69,2.34,3.36,3.45,5.07.45.71.67.65,1.11,0,3.67-5.65,7.38-11.28,11.07-16.92.15-.23.31-.45.61-.88l9.73,23.77c-.12.59.39,1,.47,1.52a.22.22,0,0,0,.26.19c.19,0,.29-.23.22-.33-.52-.66-.08-1.56-.59-2.22a14.14,14.14,0,0,1,0-3.44c.4-.34.22-.77.18-1.18a16,16,0,0,1,4.19-9.06,19.64,19.64,0,0,1,30.94,2.54,10.57,10.57,0,0,1,.56,1c0,.26-.05.53.31.6a4.26,4.26,0,0,1,.46,1.2.2.2,0,0,0,.15.24c0,.1.06.19.08.29-.13.24-.05.39.2.48,0,.21.08.42.13.63s-.05.38.18.47l.12.71c-.26.26-.21.45.14.57,0,.39.07.79.1,1.19-.23,1.89.26,3.84-.4,5.7,0,.06.08.16.12.23s-.05.36-.07.53a.33.33,0,0,0-.19.47c-.05.21-.09.43-.13.64-.25.09-.33.24-.19.48-.18.46-.36.91-.53,1.37l-.1.23-.23.51Zm-10.59-8.4a7.46,7.46,0,0,0-.32-2.53,6.45,6.45,0,0,0-4.64-4.51,5.85,5.85,0,0,0-6,1.87,8.07,8.07,0,0,0-.79,9.22,6.08,6.08,0,0,0,9.13,1.82A6.89,6.89,0,0,0,201.14,244.28Zm-21.92,10.83c-.05-.07-.08-.17-.14-.21s-.17,0-.15.13.1.13.16.18S179.17,255.15,179.22,255.11Z"/><path class="cls-3" d="M213.31,248.22c0-.07-.14-.17-.12-.23.66-1.86.17-3.81.4-5.7.44.14.27-.41.53-.47a.73.73,0,0,1,.11.77,11.54,11.54,0,0,0-.17,5,.5.5,0,0,1-.16.5C213.51,247.45,213.52,248.21,213.31,248.22Z"/><path class="cls-3" d="M175.84,246c.51.66.07,1.56.59,2.22.07.1,0,.31-.22.33a.22.22,0,0,1-.26-.19c-.08-.53-.59-.93-.47-1.52C176.1,246.78,175.56,246.21,175.84,246Z"/><path class="cls-3" d="M214.45,239.79c.33.48,0,.8-.25,1.13A1.68,1.68,0,0,1,214.45,239.79Z"/><path class="cls-3" d="M176,241.38c0,.41.22.84-.18,1.18A1.27,1.27,0,0,1,176,241.38Z"/><path class="cls-3" d="M214,249c.45.18.31.52.21.84A.8.8,0,0,1,214,249Z"/><path class="cls-3" d="M214.71,238.6c.13.29.16.54-.22.66A.6.6,0,0,1,214.71,238.6Z"/><path class="cls-3" d="M213.49,241.1c-.35-.12-.4-.31-.14-.57A.49.49,0,0,1,213.49,241.1Z"/><path class="cls-3" d="M215,237.23c.26.27.21.46-.15.56A.51.51,0,0,1,215,237.23Z"/><path class="cls-3" d="M215.3,236.24c.07.27.11.53-.23.64A.69.69,0,0,1,215.3,236.24Z"/><path class="cls-3" d="M212,236.51c-.36-.07-.32-.34-.31-.6A.61.61,0,0,1,212,236.51Z"/><path class="cls-3" d="M213.23,239.82c-.23-.09-.26-.25-.18-.47C213.23,239.46,213.36,239.59,213.23,239.82Z"/><path class="cls-3" d="M213.05,249.22a.33.33,0,0,1,.19-.47C213.36,249,213.23,249.12,213.05,249.22Z"/><path class="cls-3" d="M212.73,250.34c-.14-.24-.06-.39.19-.48C213,250.07,212.87,250.21,212.73,250.34Z"/><path class="cls-3" d="M214.33,250.78c.22.07.37.17.12.39A.33.33,0,0,1,214.33,250.78Z"/><path class="cls-3" d="M214.52,251.51c.25.09.33.24.19.48A.42.42,0,0,1,214.52,251.51Z"/><path class="cls-3" d="M212.92,238.72c-.25-.09-.33-.24-.2-.48C212.85,238.37,213,238.5,212.92,238.72Z"/><path class="cls-3" d="M212.64,238a.2.2,0,0,1-.15-.24Z"/><path class="cls-3" d="M212.1,251.94l.1-.23Z"/><path class="cls-3" d="M211.73,252.68l.14-.23Z"/><path class="cls-3" d="M211.55,253l.12-.23Z"/><path class="cls-3" d="M215,253l.12.24Z"/><path class="cls-3" d="M215.2,253.36c0,.09.07.17.11.26C215.27,253.53,215.23,253.45,215.2,253.36Z"/><path class="cls-1" d="M201.14,244.28a6.89,6.89,0,0,1-2.6,5.87,6.08,6.08,0,0,1-9.13-1.82,8.07,8.07,0,0,1,.79-9.22,5.85,5.85,0,0,1,6-1.87,6.45,6.45,0,0,1,4.64,4.51A7.46,7.46,0,0,1,201.14,244.28Z"/><path class="cls-4" d="M179.22,255.11c-.05,0-.12.11-.13.1s-.14-.11-.16-.18,0-.19.15-.13S179.17,255,179.22,255.11Z"/></svg>