<svg id="Layer_1" data-name="Layer 1" xmlns="http://www.w3.org/2000/svg" viewBox="0 0 85.88 119.19"><defs><style>.cls-1{fill:#f1646b;}.cls-2{font-size:18.26px;fill:#010101;font-family:Roboto-Light, Roboto;font-weight:300;letter-spacing:0.14em;}</style></defs><circle class="cls-1" cx="8.95" cy="8.03" r="4.31"/><circle class="cls-1" cx="8.95" cy="18.09" r="4.31"/><circle class="cls-1" cx="8.95" cy="28.15" r="4.31"/><circle class="cls-1" cx="8.95" cy="38.22" r="4.31"/><circle class="cls-1" cx="8.95" cy="48.28" r="4.31"/><circle class="cls-1" cx="8.95" cy="58.34" r="4.31"/><circle class="cls-1" cx="8.95" cy="68.4" r="4.31"/><circle class="cls-1" cx="8.95" cy="78.46" r="4.31"/><circle class="cls-1" cx="8.95" cy="88.53" r="4.31"/><circle class="cls-1" cx="19.02" cy="88.53" r="4.31"/><circle class="cls-1" cx="48.48" cy="12.34" r="4.31"/><circle class="cls-1" cx="48.48" cy="21.69" r="4.31"/><circle class="cls-1" cx="48.48" cy="31.03" r="4.31"/><circle class="cls-1" cx="48.48" cy="40.37" r="4.31"/><circle class="cls-1" cx="48.48" cy="49.72" r="4.31"/><circle class="cls-1" cx="48.48" cy="59.06" r="4.31"/><circle class="cls-1" cx="48.48" cy="69.12" r="4.31"/><circle class="cls-1" cx="48.48" cy="79.9" r="4.31"/><circle class="cls-1" cx="50.64" cy="91.4" r="4.31"/><circle class="cls-1" cx="42.73" cy="4.44" r="4.31"/><circle class="cls-1" cx="35.55" cy="20.25" r="4.31"/><circle class="cls-1" cx="35.55" cy="10.9" r="4.31"/><circle class="cls-1" cx="35.55" cy="30.31" r="4.31"/><circle class="cls-1" cx="35.55" cy="40.37" r="4.31"/><circle class="cls-1" cx="35.55" cy="50.43" r="4.31"/><circle class="cls-1" cx="35.55" cy="60.5" r="4.31"/><circle class="cls-1" cx="35.55" cy="70.56" r="4.31"/><circle class="cls-1" cx="42.01" cy="87.81" r="4.31"/><circle class="cls-1" cx="35.55" cy="80.62" r="4.31"/><circle class="cls-1" cx="65.01" cy="15.22" r="4.31"/><circle class="cls-1" cx="67.89" cy="5.87" r="4.31"/><circle class="cls-1" cx="77.23" cy="8.03" r="4.31"/><circle class="cls-1" cx="65.01" cy="24.56" r="4.31"/><circle class="cls-1" cx="65.01" cy="33.9" r="4.31"/><circle class="cls-1" cx="65.01" cy="43.25" r="4.31"/><circle class="cls-1" cx="65.01" cy="52.59" r="4.31"/><circle class="cls-1" cx="65.01" cy="61.93" r="4.31"/><circle class="cls-1" cx="65.01" cy="71.28" r="4.31"/><circle class="cls-1" cx="65.01" cy="80.62" r="4.31"/><circle class="cls-1" cx="71.84" cy="87.45" r="4.31"/><circle class="cls-1" cx="79.03" cy="80.98" r="4.31"/><circle class="cls-1" cx="75.08" cy="69.12" r="4.31"/><text class="cls-2" transform="translate(4.37 114.18)">DESIGN</text></svg>