<svg xmlns="http://www.w3.org/2000/svg" xmlns:xlink="http://www.w3.org/1999/xlink" viewBox="0 0 1360 1517"><defs><style>.cls-1,.cls-5,.cls-7{isolation:isolate;}.cls-2{fill:url(#linear-gradient);}.cls-3{mix-blend-mode:multiply;fill:url(#linear-gradient-2);}.cls-4{fill:#74c2c4;}.cls-5{fill:#a6a7a8;}.cls-5,.cls-7{opacity:0.3;}.cls-6{fill:#0d787d;}.cls-7{fill:#fff;}.cls-8{fill:#decadc;}.cls-9{fill:#a07598;}.cls-10{fill:#331b39;}.cls-11{fill:#ff636a;}.cls-12{fill:#f0636b;}.cls-13{fill:#8c3780;}.cls-14{font-size:8.5px;font-family:Roboto-Light, Roboto;font-weight:300;letter-spacing:0.14em;}</style><linearGradient id="linear-gradient" x1="-1474.52" y1="664.05" x2="1380.44" y2="-513.27" gradientTransform="matrix(1.03, 0.12, -0.16, 1, 248.14, 726.86)" gradientUnits="userSpaceOnUse"><stop offset="0" stop-color="#3859a7"/><stop offset="1" stop-color="#d93492"/></linearGradient><linearGradient id="linear-gradient-2" x1="876.46" y1="-281.37" x2="-812.2" y2="1050.32" gradientTransform="matrix(1.11, 0.06, -0.28, 1.08, 959.77, 28.33)" gradientUnits="userSpaceOnUse"><stop offset="0" stop-color="#3858a6"/><stop offset="0.6" stop-color="#8e6fb0"/><stop offset="0.68" stop-color="#a162a9"/><stop offset="0.89" stop-color="#ce4198"/><stop offset="1" stop-color="#e03492"/></linearGradient></defs><g class="cls-1"><g id="Layer_1" data-name="Layer 1"><path class="cls-2" d="M607.07,1112.3C548.49,1055.45,490.7,1030.44,440.2,945,309.59,724,111.77,830.34,42.51,683.44-33.68,521.88,152,414.89,481,256.54S1064-2.68,1220.18,183.07c157.32,187.16,5,718.38-274.4,928.2Z"/><path class="cls-3" d="M708.56,359.57C509,299.64,426.1,60.41,231.21,187.48c-242.73,158.26-59,738,182.15,841.34C955.84,1261.21,1340,802.7,1327.19,615.64,1314.37,427.77,908.08,419.5,708.56,359.57Z"/><circle cx="716.74" cy="303.75" r="14.73"/><polygon class="cls-4" points="744.05 297.88 797.64 272 800.43 288.11 744.05 297.88"/><polygon class="cls-4" points="694.68 309.47 642.71 338.47 638.97 322.55 694.68 309.47"/><polygon class="cls-4" points="705.09 291.62 659.28 253.63 672.78 244.4 705.09 291.62"/><polygon class="cls-4" points="744.34 325.49 791.33 349.1 781.54 359.73 744.34 325.49"/><ellipse class="cls-5" cx="676.53" cy="1390.81" rx="218.02" ry="36.32"/><path class="cls-4" d="M572.55,853.87c-11.77,11.61-49.69,52.7-43.73,94.14a60.22,60.22,0,0,0,6.9,20.49h-.07c.91,1.68,1.83,3.36,2.91,5h.19c9.19,13.73,24.34,25.69,45.33,35.73,1.6.77,3.25,1.52,4.93,2.27l-.22.18q2.41,1.08,4.94,2.12l.2-.18q8.91,3.71,19,7l4.16,1.37,15.49-32.38-7-.73c-8.46-.88-21.06-3.13-33-8.85-15-7.16-24.53-17.75-28.37-31.45a48.24,48.24,0,0,1-.9-21.86h0q.46-2.47,1.13-4.87h-.05c3.55-13.08,11.43-24.89,19.19-34l.14,0q1.95-2.29,3.86-4.35l-.15,0c3.73-4,7.26-7.4,10-9.88l4.73-4.23L575.48,851Z"/><path class="cls-6" d="M696.87,1386.7H679.62v2.18h17.22Z"/><path class="cls-6" d="M699.61,1386.76c0,.73,0,1.45,0,2.18l8.07,0-.13-2.14Z"/><polygon class="cls-4" points="706.77 1372.64 682.48 1373.3 678.94 1395.98 677.44 1369.77 707.28 1368.49 706.77 1372.64"/><polygon class="cls-4" points="651.91 1340.36 728.63 1337.73 722.91 1394.07 707.98 1394.72 706.5 1368.51 677.44 1369.77 678.92 1395.98 665.6 1396.56 651.91 1340.36"/><polygon class="cls-6" points="651.91 1340.36 666.71 1329.07 741.6 1326.41 728.63 1337.73 651.91 1340.36"/><polygon class="cls-6" points="742.08 1325.93 730.08 1387.16 722.91 1394.07 728.63 1337.73 742.08 1325.93"/><path class="cls-6" d="M703.19,1321.9H690v11.9s0,0,0,0v.08h0c.18.85,3,1.52,6.54,1.52s6.35-.67,6.53-1.52h.08v-12Z"/><ellipse class="cls-6" cx="696.78" cy="1322.97" rx="14.24" ry="2.9"/><path class="cls-6" d="M702.68,1400.17s1.85-27.07-10.35-26c-8.34.69-9.48,10.46-9.13,18.75l0,.6c0,4.77.31,10.22,5.51,14.51a8.26,8.26,0,0,0,1,.43C694.66,1410.37,701.3,1409.1,702.68,1400.17Z"/><path class="cls-4" d="M701.3,1397.08s-.3-19.07-4.82-18.69c-3.09.25-3.17,7.13-2.73,13l0,.43c.18,3.38.49,7.23,2.59,10.41a3.66,3.66,0,0,0,.37.33C698.67,1404.07,701.1,1403.35,701.3,1397.08Z"/><path class="cls-6" d="M490.81,560.61a1.6,1.6,0,0,1,.31-.28,1.12,1.12,0,0,1,.46-.21,1.84,1.84,0,0,1,1.46.76c3.2,3.41,7.14,18.07,9.43,35.94s2.16,33-.07,37.12c-.36.67-.77,1.08-1.23,1.14a1.17,1.17,0,0,1-.51-.09,2,2,0,0,1-.36-.18c-3.29-2.1-7.59-17.45-10-36.43S488.15,563.47,490.81,560.61Z"/><path class="cls-6" d="M898.65,560.61a2,2,0,0,0-.31-.28,1.1,1.1,0,0,0-.47-.21,1.81,1.81,0,0,0-1.45.76c-3.2,3.41-7.14,18.07-9.43,35.94s-2.16,33,.07,37.12c.35.67.76,1.08,1.23,1.14a1.13,1.13,0,0,0,.5-.09,2.1,2.1,0,0,0,.37-.18c3.29-2.1,7.59-17.45,10-36.43S901.31,563.47,898.65,560.61Z"/><ellipse class="cls-7" cx="873.34" cy="578.22" rx="13.31" ry="4.11" transform="translate(-66.23 115.32) rotate(-7.28)"/><rect class="cls-4" x="682.76" y="740.02" width="21.06" height="84.22"/><ellipse class="cls-8" cx="694.43" cy="438.42" rx="115.32" ry="99.84"/><path d="M699,397.43l17.91-85.28-4.38-.92L691.76,409.9C694.19,405.76,696.54,401.58,699,397.43Z"/><ellipse class="cls-9" cx="693.81" cy="565.61" rx="189.41" ry="174.14"/><ellipse class="cls-4" cx="694.43" cy="575.2" rx="159.44" ry="167.6"/><path class="cls-6" d="M668.08,665.8l-2.17.35v10l.29,64.06c.41.29,4.48.63,4.48.88l.05-63.32.08-9.57Z"/><path class="cls-6" d="M694.43,743.3c-3.93,0-7.81-.21-11.67-.5v10.7c3.16.2,6.35.32,9.57.32,3.86,0,7.68-.19,11.48-.48V743C700.71,743.17,697.58,743.3,694.43,743.3Z"/><path class="cls-6" d="M724.87,739.72V666.15l-2-.44-2.41,2-.33,10,.16,62.91C724.65,739.79,724.87,740,724.87,739.72Z"/><polygon points="695.39 693.5 665.91 663.47 665.91 675.87 695.39 705.93 724.87 675.87 724.87 663.47 695.39 693.5"/><path class="cls-4" d="M493,560.88l39.06,11.3a92.11,92.11,0,0,0,.54,20.23,90.89,90.89,0,0,0,4.8,20.35L502.4,634c2.23-4.15,2.35-19.3.07-37.13S496.24,564.29,493,560.88Z"/><path class="cls-4" d="M896.42,560.88l-39.07,11.3a92.67,92.67,0,0,1-.53,20.23A90.86,90.86,0,0,1,852,612.76l35,21.19c-2.23-4.15-2.35-19.3-.07-37.13S893.22,564.29,896.42,560.88Z"/><path class="cls-10" d="M540.48,609v21.67a191.12,191.12,0,0,1-5.89-19.7Z"/><path d="M615.62,573.72a29.81,29.81,0,0,0-26.88,17l-18.06,9.11,18.07,16.62a29.81,29.81,0,1,0,26.87-42.69Z"/><circle class="cls-4" cx="617.84" cy="616.57" r="28.26"/><path d="M818.39,599.79l-18.07-9.11a29.83,29.83,0,1,0,0,25.73Z"/><circle class="cls-4" cx="771.23" cy="616.57" r="28.26"/><path class="cls-6" d="M930.58,835.68c-3,10.8-7.86,21.12-15.49,29.63-16.73,18.62-43.62,25.43-79.94,20.22-6.89-1-14.23-2.44-21.91-4.32,43.3,2.72,75.74-3.81,96.64-19.53A65.27,65.27,0,0,0,930.58,835.68Z"/><path class="cls-4" d="M931.05,762.41l-.84-4-32.46.46,1.59,6.14c.93,3.62,2,8.36,2.86,13.8l-.14-.06c.29,1.85.56,3.77.79,5.76l.13,0c1.38,11.93,1.38,26.12-2.93,39l0,0q-.78,2.37-1.76,4.67h0a48.22,48.22,0,0,1-12.88,17.68c-10.81,9.26-24.62,12.76-41.06,10.41-13.11-1.88-24.83-7-32.36-11L805.7,842l-5.09,35.53,4.22,1.17c6.85,1.9,13.46,3.47,19.78,4.71v.06c1.78.35,3.57.69,5.3,1a.25.25,0,0,0,0-.07c1.79.31,3.57.6,5.3.85,25.75,3.68,46.73,1.31,62.74-7l.12-.06h0A60.21,60.21,0,0,0,915.15,865C943.12,833.82,934.38,778.59,931.05,762.41Z"/><polygon class="cls-11" points="638.47 1128.46 682.64 1323.31 700 1320.35 682.16 1133.08 638.47 1128.46"/><polygon class="cls-11" points="754.54 1128.6 711.03 1323.07 694.37 1319.92 712.53 1132.76 754.54 1128.6"/><path class="cls-11" d="M819.62,888.1a18.25,18.25,0,0,1-18.26,18.26H800a18.25,18.25,0,0,1-18.26-18.26V846.71A18.25,18.25,0,0,1,800,828.46h1.38a18.25,18.25,0,0,1,18.26,18.25Z"/><path class="cls-11" d="M604.85,888.1a18.25,18.25,0,0,1-18.26,18.26h-1.38A18.26,18.26,0,0,1,567,888.1V846.71a18.26,18.26,0,0,1,18.26-18.25h1.38a18.25,18.25,0,0,1,18.26,18.25Z"/><rect class="cls-4" x="718.55" y="891.62" width="56.85" height="18.95"/><circle class="cls-4" cx="692.43" cy="968.76" r="13.77"/><rect class="cls-4" x="718.55" y="891.62" width="56.85" height="18.95"/><circle class="cls-4" cx="692.43" cy="968.76" r="13.77"/><polygon class="cls-6" points="925.84 713.76 923.18 738.75 921.59 742.2 913.88 739.01 925.84 713.76"/><polygon class="cls-6" points="943.98 720.47 928.76 752.3 926.9 753.89 926.64 744.33 943.98 720.47"/><polygon class="cls-6" points="911.48 746.35 912.45 651.86 896.42 651.06 898.65 708.31 898.86 746.68 911.48 746.35"/><path d="M892,701.69c.83,5.29,5.48,9,10.37,8.19s8.19-5.7,7.35-11-5.48-9-10.38-8.19S891.13,696.39,892,701.69Z"/><polygon class="cls-6" points="943.98 720.47 929.65 711.35 919.09 743.86 927.89 748.86 943.98 720.47"/><polygon class="cls-6" points="940.55 681.82 957.23 685.01 942.61 715.92 932.77 713.51 940.55 681.82"/><polygon class="cls-6" points="927.32 713.1 912.69 707.42 909.1 741.42 917.99 744.31 927.32 713.1"/><polygon class="cls-6" points="935.48 670.16 920.6 662.86 918.07 703.65 927.1 707.42 935.48 670.16"/><circle cx="936.02" cy="717.33" r="8.97"/><polygon class="cls-6" points="954.07 739.88 946.92 726.16 923.77 746.99 928.44 754.95 954.07 739.88"/><polygon class="cls-6" points="961.99 702.06 975.96 708.69 956.01 732.6 947.88 728.23 961.99 702.06"/><circle cx="951" cy="732.61" r="8.77"/><circle cx="919.99" cy="710.74" r="8.97"/><polygon class="cls-6" points="891.86 732.46 881.86 741.25 906.06 757.26 911.72 751.7 891.86 732.46"/><polygon class="cls-6" points="859.72 715.92 852.07 726.82 879.35 736.69 883.54 729.96 859.72 715.92"/><circle cx="885.56" cy="734.88" r="7.61"/><polygon class="cls-6" points="629.3 1010.87 694.38 942.35 683.19 930.84 645.83 974.28 619.84 1002.51 629.3 1010.87"/><polygon class="cls-6" points="652 972.37 645.93 964.61 617.38 992.69 630.59 1002.7 652 972.37"/><ellipse cx="656.24" cy="973.38" rx="9.71" ry="8.97" transform="translate(-517.69 974) rotate(-56.04)"/><ellipse cx="617.63" cy="1010.14" rx="18.69" ry="18.12" transform="translate(-524.96 699.75) rotate(-43.36)"/><path class="cls-8" d="M857.73,555.38c0-83.24-73.88-158.64-164.75-158.64s-164.33,75.4-164.33,158.64c0,6.19.07,95.39.07,95.39s9.15,17.26,30.87,37.76l.67-140.11H825l.83,142.18C848.08,669.93,858.26,652,858.26,652S857.73,559.86,857.73,555.38Z"/><ellipse cx="912.81" cy="754.95" rx="18" ry="17.45"/><path class="cls-4" d="M705,827.21H590.22l31.4,304.13,1.15,1.5c6.22,5.09,35.52,9,70.76,9,32.6,0,60.25-3.39,69.13-7.93l-.06.05,2.78-1.07,31.37-305.63Z"/><ellipse class="cls-6" cx="693.5" cy="825.98" rx="103.36" ry="10.96"/><circle class="cls-12" cx="692.43" cy="968.76" r="13.77"/><circle class="cls-6" cx="744.6" cy="968.76" r="13.77"/><circle class="cls-13" cx="741.7" cy="1023.62" r="13.77"/><circle class="cls-6" cx="735.91" cy="1077.13" r="13.77"/><circle class="cls-6" cx="692.43" cy="1023.83" r="13.77"/><circle class="cls-12" cx="692.43" cy="1076.01" r="13.77"/><polygon class="cls-12" points="676.53 814.29 600.69 783.45 608.01 814.63 673.77 818.93 676.53 814.29"/><polygon class="cls-12" points="684.08 818.21 632.31 885.03 615.64 860.27 677.66 818.39 684.08 818.21"/><path class="cls-12" d="M714.34,814.38c0,7.47-2.26,14.08-6.46,14.08H678.72c-4.21,0-6.49-6.61-6.49-14.08v-.77c0-7.47,2.28-10.42,6.49-10.42h29.16c4.2,0,6.46,2.95,6.46,10.42Z"/><circle class="cls-11" cx="725.46" cy="879.78" r="2.01"/><circle class="cls-11" cx="725.46" cy="884.46" r="2.01"/><circle class="cls-11" cx="725.46" cy="889.15" r="2.01"/><circle class="cls-11" cx="725.46" cy="893.83" r="2.01"/><circle class="cls-11" cx="725.46" cy="898.51" r="2.01"/><circle class="cls-11" cx="725.46" cy="903.2" r="2.01"/><circle class="cls-11" cx="725.46" cy="907.88" r="2.01"/><circle class="cls-11" cx="725.46" cy="912.57" r="2.01"/><circle class="cls-11" cx="725.46" cy="917.25" r="2.01"/><circle class="cls-11" cx="730.14" cy="917.25" r="2.01"/><circle class="cls-11" cx="743.86" cy="881.78" r="2.01"/><circle class="cls-11" cx="743.86" cy="886.13" r="2.01"/><circle class="cls-11" cx="743.86" cy="890.48" r="2.01"/><circle class="cls-11" cx="743.86" cy="894.83" r="2.01"/><circle class="cls-11" cx="743.86" cy="899.18" r="2.01"/><circle class="cls-11" cx="743.86" cy="903.53" r="2.01"/><circle class="cls-11" cx="743.86" cy="908.22" r="2.01"/><circle class="cls-11" cx="743.86" cy="913.24" r="2.01"/><circle class="cls-11" cx="744.86" cy="918.59" r="2.01"/><circle class="cls-11" cx="741.18" cy="878.1" r="2.01"/><circle class="cls-11" cx="737.84" cy="885.46" r="2.01"/><circle class="cls-11" cx="737.84" cy="881.11" r="2.01"/><circle class="cls-11" cx="737.84" cy="890.15" r="2.01"/><circle class="cls-11" cx="737.84" cy="894.83" r="2.01"/><circle class="cls-11" cx="737.84" cy="899.52" r="2.01"/><circle class="cls-11" cx="737.84" cy="904.2" r="2.01"/><circle class="cls-11" cx="737.84" cy="908.89" r="2.01"/><circle class="cls-11" cx="740.85" cy="916.92" r="2.01"/><circle class="cls-11" cx="737.84" cy="913.57" r="2.01"/><circle class="cls-11" cx="751.55" cy="883.12" r="2.01"/><circle class="cls-11" cx="752.89" cy="878.77" r="2.01"/><circle class="cls-11" cx="757.24" cy="879.78" r="2.01"/><circle class="cls-11" cx="751.55" cy="887.47" r="2.01"/><circle class="cls-11" cx="751.55" cy="891.82" r="2.01"/><circle class="cls-11" cx="751.55" cy="896.17" r="2.01"/><circle class="cls-11" cx="751.55" cy="900.52" r="2.01"/><circle class="cls-11" cx="751.55" cy="904.87" r="2.01"/><circle class="cls-11" cx="751.55" cy="909.22" r="2.01"/><circle class="cls-11" cx="751.55" cy="913.57" r="2.01"/><circle class="cls-11" cx="754.73" cy="916.75" r="2.01"/><circle class="cls-11" cx="758.08" cy="913.74" r="2.01"/><circle class="cls-11" cx="756.24" cy="908.22" r="2.01"/><text class="cls-14" transform="translate(723.32 929.2)">DESIGN</text></g></g></svg>