<svg id="Layer_1" data-name="Layer 1" xmlns="http://www.w3.org/2000/svg" viewBox="0 0 1360 1517"><defs><style>.cls-1{fill:#e8e8e8;}.cls-2{fill:#8c3780;}.cls-3{fill:#f23a3f;}.cls-4{fill:#ff636a;}.cls-5{fill:#6a2f63;}.cls-6{fill:#615f5e;}.cls-7{fill:#f8fafb;}.cls-8{fill:#8fd1dc;}.cls-9{fill:#d9dadb;}.cls-10{fill:#f02730;}.cls-11{fill:#fcd4b5;}.cls-12{fill:#f7f9fa;}.cls-13{fill:#efc500;}.cls-14{font-size:47.79px;font-family:Roboto-Light, Roboto;font-weight:300;letter-spacing:0.14em;}.cls-15{fill:#ffa690;}</style></defs><path class="cls-1" d="M1301.91,1376.19c0,47.68-287.43,86.31-641.95,86.31s-642-38.63-642-86.31,287.44-86.3,642-86.3S1301.91,1328.53,1301.91,1376.19Z"/><path class="cls-2" d="M334.29,504.89l16.71-122,24.88-30.38L386.07,228l90.74.54s53.2-2.26,57.4-2,64.78.5,64.78.5l144.79,8.84s83.5-1.18,87.65,0,141.68,16,141.68,16l-2.18,139.47-52,20.74,21.65,85.58Z"/><path class="cls-2" d="M335.35,701.86S96.42,577,68.56,944.22l21.9,6.72s101.4-228.62,174-176.91Z"/><path class="cls-3" d="M41.13,925.07a54.63,54.63,0,0,0-21.58,87.73,38.75,38.75,0,0,1,77.32,3.84,54.6,54.6,0,0,0-55.74-91.57Z"/><polygon class="cls-4" points="60.31 874.75 62.85 891.26 130.12 905.39 135.38 890.2 60.31 874.75"/><polygon class="cls-4" points="81.14 796.73 82.44 814.01 167.43 847.02 176.04 833.26 81.14 796.73"/><polygon class="cls-4" points="134.5 693.87 127.34 710.69 196.63 807.05 212.04 801.16 134.5 693.87"/><polygon class="cls-4" points="246.7 658.84 234.24 672.22 266.68 786.39 283.18 786.09 246.7 658.84"/><path class="cls-4" d="M302,347.49c2.51-14.85,2.24-29.9,3.22-44.86.78-11.84,2.67-14,14.28-14.32,8.5-.24,17-.28,25.52.3,7.94.54,10.7-2.91,10.88-10.43.32-14,1.13-28,1.82-42,1.27-25.49,2.14-26.32,26.92-26.13,83.1.62,166.15,3,249.19,6.12,22.89.85,19.46,2.2,19.83-19.81.2-11.83-.09-11.89-12.54-12.54-10-.51-20-.68-30-1.35-17.48-1.18-33.29-6.94-46.42-18.77-29-26.17-24.49-69.23,9.24-89.15C600.16,59,636,61.23,660.24,79.83c9.71,7.44,9.71,7.44,20.82.68,30.83-18.78,73.26-13,97.87,13.33,28.25,30.21,19.14,72.52-19.09,88.44-13.24,5.52-27.12,6.66-41.27,5.59-9.49-.71-19-1.34-28.45-2.13-4.37-.36-6.61,1.41-6.67,5.83a14.93,14.93,0,0,1-.05,1.5c-2.65,25-2.65,25,23.13,26.5,83,4.75,165.78,11,248.36,20.43,1.49.17,3,.31,4.47.5,19.15,2.55,21.47,5.23,21.51,25,0,15.52.35,31.05-.07,46.55-.18,6.94,2.34,10.06,9.12,10.74,10.45,1.06,20.88,2.38,31.28,3.87,12.47,1.79,14.15,3.83,14.39,16.34.32,16.5-1.15,33,.46,49.5-1.4,18.05-1.1,36.13-.49,54.2-.18,1.45-.38,2.9-.53,4.35-1.27,12.3-2.52,13.49-14.07,13-2.44-.1-4.87-.83-7.28-.71-4.79.24-5.13,3.51-4.34,7.27-1.61,17.05-1.38,34.12-.77,51.2-.22,5.33-.37,10.66-.69,16-.53,8.63,1.53,17.55-2.83,25.75-7.3,5-15.35,2.94-23.2,2.33s-15.85-1.61-23.78-2.25c-32.77-2.64-65.53-5.46-98.32-7.74-26.34-1.83-52.73-3-79.11-4.34-3-.14-7.28-1.72-8.38,3.48,15.74,7.06,15.76,7.06,15.57,25.36-.08,7.48-.25,15-.37,22.43-6.61.09-13.26.8-19.73-1.26.06-6-.2-12,.25-17.93.6-7.78-2.73-10.36-10.36-10.57-32.83-.92-65.65-2.32-98.47-3.55-5-.19-10-.06-14.92-.69-22.81-3-45.76-1.36-68.62-2.36-6.12-.26-9.37,1.87-9.17,8.48.18,6-.18,12-.3,17.93-6.7,1.48-13.41,1.09-20.12.08.16-7,.34-14,.5-21,.41-18.44.41-18.44,15.51-28-7.38-3.17-14.19-3.22-20.83-3.41-51.45-1.44-102.9-2.69-154.35-4.12-16.48-.46-32.94-1.41-49.42-1.84a34.64,34.64,0,0,1-14.29-3.81c-2.68-18,1.31-36-.33-54,.67-13.34.93-26.72,2.15-40,.82-8.94-3.28-10.35-10.53-8.82-15-3.21-15-3.21-14.61-17.74.08-2.91,0-5.82-.07-8.73C301.62,383.52,303,365.56,302,347.49Zm576.84,63.14c1.83-.27,3.08-1.15,3.33-3.11l-.23.18c2.75.19,5-.55,6.09-3.35l-.23.14c11.42-5.44,41.33-12.24,56.31-12.08,6.92.07,10-1.92,9.75-9.24-.49-14.39-.41-28.79-.56-43.19,3.39-.15,6.79-.39,10.19-.43,3.16,0,5.87-.58,6.51-4.29s0-7.07-3.89-8.45c-4.12-1.48-8.47-2.36-12.71-3.49.13-15.9.4-31.8.36-47.69,0-10.92-.12-11.63-11.08-13.09-23.56-3.14-47.18-6-70.86-7.91-10.34-.86-20.55-4.16-31.09-2.33-24-6.92-48.33-10.08-73.2-5-22.25-2.66-44.61-3.71-67-4.82q-35.84-1.78-71.69-3.7c-20.61-3.89-41.42-2.81-62.2-2.45-30-3.51-59.93-6.13-90-1.21-28.21-2.73-56.51-.69-84.75-1.42-6.31-.16-8.7,2.51-9.06,8.73-1,16.83-2.43,33.64-3.7,50.46-4.72.84-9.46,1.59-14.15,2.56-3.63.74-6.22,2.57-5.73,6.86-11.2-2.66-22.61-2.06-34-2.13-2.5,0-5.61-.32-7,1.82-2.8,4.42-1.32,9.74-1.85,14.66-.5,4.64-3.36,10.1,3.38,12.94A115,115,0,0,1,319,357.8c-2.5,15.33-.14,30.75-.51,46.13-.06,2.51.46,5.18,4,4.78,2.59-.29,2.81-2.6,2.88-4.51.3-7.94.68-15.78,2.51-23.64,3.2-13.7,2.77-14.25,16.58-15.42,6.71-.57,8.43-3.54,8.36-9.41-.11-8.94.07-17.89.13-26.83.4-5.21.76-10.42,1.22-15.62.31-3.48,1.1-6.68,5.57-6.8,5,4.66,12.08,1.92,17.47,5.12-.61,5.81-1.65,11.61-1.72,17.43-.12,10-3.84,20.22,1.13,30.05.88,6.08,5.36,6.23,10.07,6.23,12,0,24,.08,36,.13l-.2-.11,3,3C434.87,382.24,448.3,392.27,460,404c2.21,1.89,4.07,4.55,7.62,3.5l-.11-.3C470,419.55,482,424,488.82,432.83c4.26,5.47,10.35,7.23,17.27,7.26,37.91.15,75.78,1.41,113.64,3.35,31.37,1.61,62.87,1.31,94.13,4,24.85,2.15,49.77,1.73,74.61,4.32,32.68,3.4,32.85,2.61,59.91-17.59,7.46-5.56,16.78-8.95,21.63-17.73l-.17.15a6.09,6.09,0,0,0,6.19-3.25l-.27.2a4.05,4.05,0,0,0,3.31-3.14Zm102.43-48.71c-.12,6.49-.34,13-.33,19.48,0,14.4.06,14.4,13.91,17,10.25,1.89,13.08,5.05,13.73,16.12.46,8,.47,16,.81,24,.14,3.1.9,5.95,5,5.52,2.58-2.53,1.45-5.67,1.55-8.51.82-22.94,1.54-45.89,2.28-68.84,1.2-.82,3.29-1.49,3.46-2.5,1.36-7.76,3.13-16.26-.56-23.15-2.84-5.3-10.93-2.6-16.42-4.58-1.81-.66-3.91-.52-5.88-.72-18.24-1.8-18.27-1.8-18.16,15.89C980.7,355,981.05,358.47,981.25,361.92Zm-475,158.77c11.21,2.32,22.55,1.16,33.83,1,3.66-.05,8.09,1.34,10.51-3.21,50.51-.23,100.87,3.32,151.29,5.51,53.9,2.33,107.71,6,161.57,8.92q55.32,3,110.38,8.49c5.3.52,7-1.4,7.51-6.43,3.41-35.43,1.52-71,2.23-106.42.13-6.47-2.67-8.42-8.87-8.95-14.88-1.3-29.69-3.42-44.53-5.21-5.7-.69-10.45.7-15.31,4.25-24.22,17.67-48.91,34.69-73.06,52.45-6.1,4.48-12.1,6.48-19.42,5.88-12.44-1-24.89-2-37.36-2.69-37.41-2.06-74.82-4.34-112.26-5.85q-87.64-3.54-175.33-6c-9.72-.27-17-2.86-23.79-9.94-18-18.77-36.51-37-54.89-55.36-3.48-3.48-6.5-7.71-12.21-7.94-16-.64-31.94-1.37-47.9-2.1-5.61-.26-8.15,2.26-8.24,8-.12,7.49-.71,15-1.09,22.46-.83,2.31-2.13,4.56-2.42,6.93-3.39,27.85-2.25,55.88-3.19,83.83-.29,8.71,5.92,7.55,11.28,7.71,35.45,1,70.91,2,106.36,3C476.31,519.46,491.27,520.12,506.24,520.69Zm235-353.33c0-19.94.13-37.39-.06-54.84-.09-8.56-1-9.3-9.81-7.88-19.21,3.1-38.48,6-57.49,10.08-7.47,1.6-11.64-.18-16.74-5.48-13-13.51-33.81-15.69-49.6-6.3-18,10.67-20.76,32.12-6.16,47,13.76,14.05,38.61,16.26,53.16,2.81,7.68-7.11,14-6.9,22.7-4.17C697.66,155,718.31,160.7,741.24,167.36Zm-158.78,380a277.08,277.08,0,0,0,40.73,3.85c19.93.63,39.87,0,59.81,2.29,20.28,2.34,40.91,0,61.26,3,3,.43,6.91-.46,6.8-4.07-.12-3.94-4.3-3.3-7.14-3.4-9-.34-18-.2-27-.8-41.81-2.8-83.65-4.94-125.56-5.38C588.69,542.83,585.35,541.76,582.46,547.33Z"/><path class="cls-2" d="M349.3,417.53c.38-7.49,1-15,1.09-22.46.09-5.7,2.63-8.22,8.24-8,16,.73,31.93,1.46,47.9,2.1,5.71.23,8.73,4.46,12.21,7.94,18.38,18.37,36.92,36.59,54.89,55.36,6.77,7.08,14.07,9.67,23.79,9.94q87.68,2.42,175.33,6c37.44,1.51,74.85,3.79,112.26,5.85,12.47.69,24.92,1.66,37.36,2.69,7.32.6,13.32-1.4,19.42-5.88,24.15-17.76,48.84-34.78,73.06-52.45,4.86-3.55,9.61-4.94,15.31-4.25,14.84,1.79,29.65,3.91,44.53,5.21,6.2.53,9,2.48,8.87,8.95-.71,35.47,1.18,71-2.23,106.42-.49,5-2.21,6.95-7.51,6.43q-55.1-5.48-110.38-8.49c-53.86-3-107.67-6.59-161.57-8.92-50.42-2.19-100.78-5.74-151.27-5.51-11.7-2.22-23.52-2.43-35.38-1.9q-30.42-3.51-60.84-7c-26.72-3-53.41-6.33-80.17-8.85-8.47-.8-11.93-4-13.16-12.49C357.64,464.58,353.28,441.08,349.3,417.53Z"/><path class="cls-2" d="M870,416.46c-4.85,8.78-14.17,12.17-21.63,17.73-27.06,20.2-27.23,21-59.91,17.59-24.84-2.59-49.76-2.17-74.61-4.32-31.26-2.71-62.76-2.41-94.13-4-37.86-1.94-75.73-3.2-113.64-3.35-6.92,0-13-1.79-17.27-7.26C482,424,470,419.55,467.51,407.17c11.05,2.72,22,6.6,33.18,8,45.54,5.51,84.45-7.17,111.59-45.8,9.9-14.09,15.68-30.88,25.44-45.45,4.45-6.66,8.18-10.71,16.17-10.14,5.48.39,11,.42,16.48.76,4.32.27,8.22,2.31,9.5,6.28,4.19,13.06,14,23,19,35.62,18.13,45.69,53.55,67.85,101.19,72.67C824.57,431.55,847.58,425.6,870,416.46Z"/><path class="cls-2" d="M767.73,601.55c-17,2.81-33.75-2-50.7-2.08-36.91-.11-73.72-3.54-110.67-3.94-13.3-.15-26.84-1.22-40.22-2.67.12-6,.48-12,.3-17.93-.2-6.61,3-8.74,9.17-8.48,22.86,1,45.81-.6,68.62,2.36,4.92.63,9.94.5,14.92.69,32.82,1.23,65.64,2.63,98.47,3.55,7.63.21,11,2.79,10.36,10.57C767.53,589.57,767.79,595.57,767.73,601.55Z"/><path class="cls-5" d="M349.3,417.53c4,23.55,8.34,47.05,11.75,70.69,1.23,8.51,4.69,11.69,13.16,12.49,26.76,2.52,53.45,5.82,80.17,8.85q30.42,3.46,60.84,7l-9,4.11c-15-.57-29.93-1.23-44.91-1.68-35.45-1.06-70.91-2-106.36-3-5.36-.16-11.57,1-11.28-7.71.94-28-.2-56,3.19-83.83C347.17,422.09,348.47,419.84,349.3,417.53Z"/><path class="cls-2" d="M352.91,328.9c-.06,8.94-.24,17.89-.13,26.83.07,5.87-1.65,8.84-8.36,9.41-13.81,1.17-13.38,1.72-16.58,15.42-1.83,7.86-2.21,15.7-2.51,23.64-.07,1.91-.29,4.22-2.88,4.51-3.54.4-4.06-2.27-4-4.78.37-15.38-2-30.8.51-46.13a115,115,0,0,0,.87-28.23Z"/><path class="cls-2" d="M1018.24,366.62c-.74,22.95-1.46,45.9-2.28,68.84-.1,2.84,1,6-1.55,8.51-4.14.43-4.9-2.42-5-5.52-.34-8-.35-16-.81-24-.65-11.07-3.48-14.23-13.73-16.12-13.85-2.56-13.89-2.56-13.91-17,0-6.49.21-13,.33-19.48Z"/><path class="cls-2" d="M386.68,318.65c15.48-1,22,10.91,28,21.44,4.24,7.45,7.58,16.19,7.93,25.35-12-.05-24-.14-36-.13-4.71,0-9.19-.15-10.07-6.23Q381.64,338.86,386.68,318.65Z"/><path class="cls-2" d="M582.46,547.33c2.89-5.57,6.23-4.5,8.94-4.47,41.91.44,83.75,2.58,125.56,5.38,9,.6,18,.46,27,.8,2.84.1,7-.54,7.14,3.4.11,3.61-3.85,4.5-6.8,4.07-20.35-3-41-.7-61.26-3-19.94-2.3-39.88-1.66-59.81-2.29A277.08,277.08,0,0,1,582.46,547.33Z"/><path class="cls-5" d="M1018.24,366.62l-37-4.7c-.2-3.45-.55-6.9-.57-10.36-.11-17.69-.08-17.69,18.16-15.89,2,.2,4.07.06,5.88.72,5.49,2,13.58-.72,16.42,4.58,3.69,6.89,1.92,15.39.56,23.15C1021.53,365.13,1019.44,365.8,1018.24,366.62Z"/><path class="cls-5" d="M352.91,328.9l-33.08.67c-6.74-2.84-3.88-8.3-3.38-12.94.53-4.92-.95-10.24,1.85-14.66,1.36-2.14,4.47-1.84,7-1.82,11.36.07,22.77-.53,34,2.13.16,1.4.31,2.8.46,4.2-4.47.12-5.26,3.32-5.57,6.8C353.67,318.48,353.31,323.69,352.91,328.9Z"/><path class="cls-5" d="M476.63,235.09c-4.52,8.58-15.24,7.35-21.31,13.48-14-.32-27.84,1.21-41.75,2-7.47.41-10.51,3.54-12,10.3-2.35,10.68-12.21,47.2-14.9,57.81-4.83.06-5.54,0-10.37.07,1.26-16.82,5.54-59.49,6.51-76.32.36-6.22,2.75-8.89,9.06-8.73C420.12,234.4,448.42,232.36,476.63,235.09Z"/><path class="cls-5" d="M386.68,318.65q-5,20.21-10.1,40.43c-5-9.83-1.25-20-1.13-30.05.07-5.82,1.11-11.62,1.72-17.43C382,311.7,384.93,314.39,386.68,318.65Z"/><path class="cls-5" d="M628.84,238.75c-19.37.76-38.77,1-58.06,3.39-3.9-.16-3.84-3.13-4.14-5.84C587.42,235.94,608.23,234.86,628.84,238.75Z"/><path class="cls-5" d="M506.24,520.69l9-4.11c11.86-.53,23.68-.32,35.38,1.9-2.44,4.55-6.87,3.16-10.53,3.21C528.79,521.85,517.45,523,506.24,520.69Z"/><path class="cls-4" d="M460,404c3.71-1.39,6.32-.37,7.62,3.5C464.07,408.52,462.21,405.86,460,404Z"/><path class="cls-4" d="M881.92,407.7c1.43-2.19,2.61-4.86,6.09-3.35C886.91,407.15,884.67,407.89,881.92,407.7Z"/><path class="cls-4" d="M869.84,416.61c1.17-2.8,3.29-3.76,6.19-3.25A6.09,6.09,0,0,1,869.84,416.61Z"/><path class="cls-4" d="M875.76,413.56c-.12-2.32,1.35-3,3.31-3.14A4.05,4.05,0,0,1,875.76,413.56Z"/><path class="cls-4" d="M878.82,410.63c.26-1.94,1.53-2.81,3.33-3.11C881.9,409.48,880.65,410.36,878.82,410.63Z"/><path class="cls-6" d="M422.42,365.33c2.4-.4,2.65,1.36,3,3Z"/><path class="cls-2" d="M515.7,244.48c29.4-6.77,53.36,4,74,23.59,38.14,36.09,33.4,91.86-9.89,121.47-35.44,24.23-83.46,25.26-119,1.58-26.7-17.81-40.21-43-36.39-75.49,3.86-32.79,22.72-54.79,52.68-67.41C489.47,243,503,246.09,515.7,244.48Zm8.37,22c-4,0-8.07-.53-12,.09-22,3.5-38.13,15.42-45.53,36.35-6.48,18.32-2.51,36.12,11.74,49.62,27.8,26.35,68.47,23.38,91.66-.78,16.84-17.55,19.25-39.95,5.22-60C562.89,274.25,545.74,265.5,524.07,266.5Z"/><path class="cls-2" d="M797.06,253.05c38.12,1.78,70,16,91.5,48.61C913.8,340,902,386,861.94,408.5c-46.18,25.95-111.73,11.27-142.49-31.91-24.2-34-18.11-77.29,14.66-103C752.52,259.1,773.66,252.64,797.06,253.05Zm13.29,130.31a66.06,66.06,0,0,0,26.35-5.29c33.81-13.75,43.29-50.52,20.36-78.85-18.82-23.26-53.84-32.76-81.66-22.14-38,14.51-46.73,58.29-17,86.19C773,376.89,790.67,382.83,810.35,383.36Z"/><path class="cls-2" d="M393.62,292.68c2.68-10.61,5.61-21.16,8-31.84,1.48-6.76,4.52-9.89,12-10.3,13.91-.76,27.78-2.29,41.75-2C444.7,258.28,434,268,426.26,280.26c-5.21,8.31-16,9.84-20.81,18.51-.76,1.36-4,1-5.15-1C398.67,295.17,397,292.88,393.62,292.68Z"/><path class="cls-7" d="M524.07,266.5c21.67-1,38.82,7.75,51.13,25.32,14,20,11.62,42.41-5.22,60-23.19,24.16-63.86,27.13-91.66.78-14.25-13.5-18.22-31.3-11.74-49.62,7.4-20.93,23.54-32.85,45.53-36.35C516,266,520.07,266.5,524.07,266.5Zm-7,90.92c2.8-.18,6.32-.15,9.76-.68,13.2-2,27.61-15.26,30.52-27.79,3.36-14.51-2.55-28.69-15.63-37.67-9.52-6.54-20.11-8.15-31.38-7.25-18.2,1.46-34,15.25-36.57,32.13-2.41,15.9,8.93,32.52,26.4,39C505.48,357.17,510.93,357.07,517.08,357.42Z"/><path class="cls-7" d="M810.35,383.36c-19.68-.53-37.4-6.47-51.93-20.09-29.75-27.9-21-71.68,17-86.19,27.82-10.62,62.84-1.12,81.66,22.14,22.93,28.33,13.45,65.1-20.36,78.85A66.06,66.06,0,0,1,810.35,383.36Zm7.23-12A47.24,47.24,0,0,0,840.76,366c19.27-9.89,25.22-31.27,13.85-49.63C841.46,295.12,810.31,287,788.38,299c-19.3,10.6-24.72,33.34-11.94,51.34C786.44,364.44,800.83,370.37,817.58,371.4Z"/><path class="cls-8" d="M517.08,357.42c-6.15-.35-11.6-.25-16.9-2.23-17.47-6.51-28.81-23.13-26.4-39,2.56-16.88,18.37-30.67,36.57-32.13,11.27-.9,21.86.71,31.38,7.25,13.08,9,19,23.16,15.63,37.67-2.91,12.53-17.32,25.75-30.52,27.79C523.4,357.27,519.88,357.24,517.08,357.42Zm16.46-51.95c-.94-2.47-3-3.27-5.37-3.77-14.79-7.18-29-3.85-36.24,8.48-6.11,10.41-3.45,20.87,7.3,28.72a26.91,26.91,0,0,0,36.57-4c6.92-8,7.32-13.55,1.71-24.15C536.87,308.44,536,306.36,533.54,305.47Z"/><path class="cls-8" d="M817.58,371.4c-16.75-1-31.14-7-41.14-21-12.78-18-7.36-40.74,11.94-51.34,21.93-12.06,53.08-3.89,66.23,17.37C866,334.74,860,356.12,840.76,366A47.24,47.24,0,0,1,817.58,371.4Zm18.34-50.66c-10.52-12.69-32-13.27-41.27-.77-5,6.78-6.73,14.31-2.38,22.46,8,14.94,27.93,21.19,42.76,13.16,14.53-7.87,15.18-24.79,1.33-34.57Z"/><path class="cls-6" d="M537.51,310.7c5.61,10.61,5.21,16.17-1.71,24.16a26.91,26.91,0,0,1-36.57,4c-10.75-7.85-13.41-18.31-7.3-28.72,7.24-12.33,21.45-15.66,36.24-8.48-.53.66-1.07,1.32-1.61,2-3.44-.08-7-.84-10.29-.11-7.13,1.6-11.47,7.57-11,13.91s5.94,11.18,13.13,12c10.34,1.16,15.21-3.75,16.94-17.07Z"/><path class="cls-6" d="M533.54,305.47c2.44.89,3.33,3,4,5.23l-2.13,1.68-3.53-5.17Z"/><path class="cls-6" d="M528.17,301.7c2.32.5,4.43,1.3,5.37,3.77l-1.69,1.73-5.29-3.53C527.1,303,527.64,302.36,528.17,301.7Z"/><path class="cls-6" d="M836.36,321c13.85,9.78,13.2,26.7-1.33,34.57-14.83,8-34.8,1.78-42.76-13.16-4.35-8.15-2.64-15.68,2.38-22.46,9.25-12.5,30.75-11.92,41.25.76-5.47-2.76-11.15-4.58-17.34-3.39-10.38,2-14.2,12.32-7.66,20.48,5.46,6.79,15.9,8.73,23,4.27C840.59,337.88,841.13,333.29,836.36,321Z"/><path class="cls-9" d="M836.36,321c4.77,12.27,4.23,16.86-2.46,21.07-7.1,4.46-17.54,2.52-23-4.27-6.54-8.16-2.72-18.48,7.66-20.48,6.19-1.19,11.87.63,17.34,3.39Z"/><path class="cls-9" d="M526.56,303.67l5.29,3.53,3.53,5.18c-1.73,13.32-6.6,18.23-16.94,17.07-7.19-.8-12.63-5.76-13.13-12s3.83-12.31,11-13.91C519.53,302.83,523.12,303.59,526.56,303.67Z"/><path class="cls-2" d="M984.3,809.84l29.26-111.19c38.63,34.82,168.9,22.93,159.9-162.77l60.5-.55S1214.91,884.43,984.3,809.84Z"/><path class="cls-2" d="M1118,695.63c1.94,31,9.35,60.69,20.18,89.38,86.34-76.26,95.82-249.68,95.82-249.68l-60.5.55C1177.68,623.05,1151.22,671.92,1118,695.63Z"/><path class="cls-4" d="M1060.72,714.09c-19.38,0-36.66-6-47.16-15.44L984.3,809.84c40.44,13.08,74.35,13.09,102.82,4.28C1074.1,782,1064.57,748.84,1060.72,714.09Z"/><path class="cls-3" d="M1342.09,406.59l-33.2-7.51c5.91,119.37-189.65,68.08-73.77-16.68l-47.95-10.86C988.42,577.35,1432.89,677.89,1342.09,406.59Z"/><path class="cls-4" d="M1219.7,696.8a51.49,51.49,0,1,0-51.48,51.48A51.48,51.48,0,0,0,1219.7,696.8Z"/><polygon class="cls-2" points="276.27 577.94 264.74 1046.42 1013.86 1066.27 1026.88 625.99 292 575.61 276.27 577.94"/><path class="cls-2" d="M683.69,1047.05c12.59-9.3,26.64-12.54,42.26-12,42.38,1.57,84.8,2.52,127.2,3.66a65,65,0,0,1,40,14.62l2.52,3.21c7.62,13.23,12.5,26.75,7.26,42.38-2.57,7.69-11.44,13-10.9,20.34.56,7.77,8.32,14.33,8.62,23.19.05,1.38,1,2.73,1.57,4.09-1.45,10.44-2.92,20.9-10.06,29.33-3.17,3.74-2.67,7,0,10.7,2.06,2.8,3.7,5.92,5.52,8.9q1.23,5.48,2.45,10.94c.75,13.62-5.07,25.11-11.75,36.33,9.13,26.66,9.13,26.66,33.69,33.19,1.41.37,2.87.56,4.31.84l36,17.63c15.37,11.33,30,23.48,41.83,38.63l10.29,17.42c1.28,3.32,2,7,5.17,9.22.58,2.13.33,4.59,2.44,6.1.67,10.48,4,20.59,3.93,31.2-.1,14-1.7,16.66-15.86,18.37a328.35,328.35,0,0,1-35.9,2c-97,1-193.94.37-290.83-4.37-2.5-.13-5-.21-7.48-.54-11.49-1.56-13.56-3.75-13.69-15.33s.06-23,.11-34.45c1.93-10,3.15-20,1.82-30.13,1.4-10.37,2.81-20.74,4.17-31.11.51-4,1.32-8-1.76-11.38-4.8-14.08-3.72-27.86,2-41.42,6.9-5.28,8.43-11,2.67-18.46-5.21-6.75-5.92-15.29-7.25-23.45,1.39-9.5,4-18.56,10.25-26.11,3-3.64,3.15-6.67.41-10.64-12.72-18.39-11.43-36.48,2.11-53.85,2.75-3.52,4.11-6.23,1.24-10.5C664,1084.69,667.57,1065.23,683.69,1047.05Zm150.64,216h33.16c-10.93-10.15-22.71-11.38-35.33-5.69-32.45-2-65-2-97.45-2.47-11.13-6.34-22.74-4.1-34.11-1.34-5.4,1.31-9.18,5.63-11.55,10.86-1.87,4.11-4.07,8.5-.78,12.51,3,3.64,7.43,2,11.12,1a178.59,178.59,0,0,1,30.43-6.23C764.51,1267,799.24,1262.89,834.33,1263.06Zm143.06,68.22c-1.31-.61-2.93-.91-3.89-1.87-28.81-28.59-64.59-40.87-104-44.68-4.85-3.57-10.57-2.43-15.94-2.71-36.53-1.94-72.83,1.14-108.9,6.42-11.66,1.71-23.9,2-34.69,7.93-20.41,2.06-22.81,4.57-23.72,24.5a96.07,96.07,0,0,1-1.09,13.38c-3.21,16.84-1.15,33.84-1.88,50.75-.2,4.54,1.47,8.1,6.68,7.86,9.06-.42,17.76,2.43,26.71,2.71,28.38.89,56.77,1.67,85.13,2.52,57.36,1.72,114.81.41,172.22.72,10.08,0,19.64-3.19,29.66-3.08,3.07,0,4-2.44,2.31-5.28-1.3-19-8.12-35.67-21.44-49.48ZM836.45,1194l-104-2.55c-7-5.66-15.28-3.17-22.9-3-12.33.34-20.38,9.32-20.36,21,0,12.44,7.21,20.47,20,21.17,8.88.49,17.82-.21,26.73-.37l96.84,1.22c11.91,6.82,28.27,5.72,36.94-2.47,11.69-11.06,8.73-29.62-6.24-35.5C854.79,1190.17,845.41,1189.22,836.45,1194Zm.07-64.86L735,1127.72c-4.92-4.17-11.32-3.82-17-4.62-11.34-1.58-23.33,6.72-27.13,17.26-2.86,7.91-.06,18.78,8.82,23.26,11.73,5.91,24.61,10.27,38,3.41,32.28,1,64.62-.51,96.86,2.17,9.48,7.18,19.72,4.2,29.44,1.38,9.48-2.75,14.65-10.93,14.72-20.33.07-8.63-6-18.32-14.64-20.58C855.09,1127.36,845.74,1125.84,836.52,1129.17Zm-.47-66.12c-32.3-1.48-64.74.77-96.95-3.3-9.2-5.81-19.26-4.71-28.54-1.62-18.28,6.07-22.87,26.18-9.26,38.71,11.1,10.22,23.93,9.76,37.14,4.65,32.29,2.93,64.7,2.13,97,3.22,7.55,5.81,16.34,3,24.52,3,9.89,0,18.8-7.52,21.29-16,2.87-9.86-.56-20.51-10-26C860.26,1059.25,848.31,1057,836.05,1063.05Z"/><path class="cls-2" d="M339.25,1270.09l35.31-12.86a72.38,72.38,0,0,1,8.72-1.17c9.45-.15,15.68-4.07,17.45-13.87a7.91,7.91,0,0,1,2-3.88c7-7.21,5.54-13.72-1.4-19.89-4.83-15.31-5.63-30.39,2.42-45,4.58-4,6.68-8.08,2.36-13.93-7.45-10.12-8.34-22-7.68-34,2.69-5.27,4.74-11,8.22-15.69,3.69-5,3.12-8.64-.34-13.17-8.41-11-10-23.61-7.51-36.83,1.85-9.64,8.42-16.71,14.23-24.12,20.93-13.93,44.37-9.21,67-8.27,10.92.45,21.88,1.35,32.84,1.8,23.43,1,46.85,2,70.28,2.92,12.48.49,23,6.16,33.32,12.33.83,1.24,1.61,2.51,2.5,3.71,16,21.84,16.73,34.84,2.31,57.3-2.71,4.21-2.52,6.59.4,10.34,13.65,17.54,14.06,35.65,1.11,53.76-2.66,3.73-3.53,6.93-.57,10.75,6,7.79,7.34,17.29,9.42,26.51-2.24,8.11-2.37,17.3-8.43,23.64-7.25,7.58-4.29,13,1.95,18.61,4.86,12.69,5.64,25.56,1.7,38.63-2.63,3.16-4.48,6.55-4,10.9,1.1,10.4,2.08,20.81,3.1,31.22q.38,16.49.76,33c-.36,11.48-.54,23-1.12,34.44-.61,12.22-3.27,14.67-15.62,14.56-87.49-.76-174.85-4.51-262-12.41-20.9-1.89-41.79-3.81-62.54-7-17.88-2.75-21.27-6.75-19.42-24.76,3.18-30.84,17.52-55.83,41-75.82C316.94,1283.32,328.36,1277.1,339.25,1270.09ZM317,1311.6c-2.11,0-3.17,1.07-3.11,3.2l.11-.15c-2.77-.33-4.49,1.26-6.18,3.16-12.33,13.84-21,29.45-23.48,48.09.36,8.79,7.32,8.39,13,8.76,11.95.8,23.82,2.59,35.65,4,31.7,3.71,63.56,5.9,95.33,7.55,33.38,1.74,66.77,5.21,100.29,4a26,26,0,0,1,6,.3c20.33,4,40.89,1.4,61.33,2.31,5.92.27,9.55-1.6,9.48-8.34-.24-23.51-.05-47-.58-70.54-.2-9.17-4.12-16.39-14.55-17.94-2.92-.43-5.74-1.57-8.61-2.39-6.14-2-12.2-4.33-18.43-6-32.81-8.63-66.38-13.18-100-16.74-18.17-1.92-36.71-2.67-55,1.09-31.62,3-60.66,12.79-85.64,33-1.46.87-2.7,1.91-2.84,3.76l.18-.19c-2,.15-3.11,1.13-3.16,3.19Zm145.17-65.43c-14.48-6.67-26.74-5.53-37.44,5.38H460l63.37,8.73c13.26,1.82,26.12,6.11,39.62,6.37,9.12,5.42,19.9,5.51,29.57,9.24,3.43,1.32,7.53,4.72,11,1s2.07-8.45.52-12.7c-2.33-6.37-6.43-11.62-13-13.51-10.46-3-21.15-4.59-31.5.86ZM559.55,1225c7.79,5.61,16.76,6,25.69,5.09,11.31-1.13,19.79-9.92,20.47-20.17.75-11.11-5.39-20.9-16.56-23.35-8.47-1.85-17.58-3.65-26,1.3l-102.27-5.32c-5.38-5.28-12.2-3-18.36-3.1-11.89-.14-20.48,7-22.41,17.58-1.73,9.49,4.92,21.18,15.29,24.7,8.89,3,18.26,4.45,27.33-.17C495,1222.12,527.22,1225.52,559.55,1225Zm-93-172.71c-9.89-7.08-28.83-6.49-38.2,1.4-6.07,5.1-9.28,11.79-8.33,19.76,2.2,18.64,27.77,29.73,45,19.71,31.59,3.48,63.48,1,95.06,4.82,11.8,6.43,24,5.42,35-.64,14.15-7.75,16.79-25.21,5.43-34.89-11.12-9.49-24.1-13.06-38.29-6.08Zm-3,106.15,96.65,3.66c7.53,4.74,16.42,4.08,24.49,4.51,10.06.55,17.93-6,22.14-15.27,3.74-8.27,1.18-16.53-5.33-21.79-11.23-9.06-24.26-12.61-38.53-6.89l-100.48-3.74c-8.07-4.92-16.73-5.35-25.52-2.76s-14.42,8.38-15.38,17.92c-1,9.77,2,18.06,11,22.55C442.42,1161.6,452.93,1163.63,463.59,1158.45Z"/><path class="cls-2" d="M984.52,1341c13.32,13.82,20.14,30.46,21.44,49.49-9.51-.16-19-.33-28.5-.46-48.47-.66-97,.76-145.39-3.18-27.42-2.23-54.69-5.24-80.69-15.07-12.82-4.84-24.31-11.62-32.94-22.57-12.61-16-12.44-34.11-8.5-52.8,10.79-5.92,23-6.22,34.69-7.93,36.07-5.28,72.37-8.36,108.9-6.42,5.37.28,11.09-.86,15.94,2.71-6.48.08-13-.16-19.44.31-5.78.43-12.21-1.7-18.17,2.78a12.82,12.82,0,0,0,2.38,1.48c6.86,1.22,13.72,2.47,20.61,3.56,41.47,6.57,80.35,19.5,113.88,45.84,2.57,2,5.15,5.06,9.22,3.13l-.18-.22a2.57,2.57,0,0,0,0,3.48c.95,2.3,2.9,4.77,5,3.8,2.25-1.05.64-4.15.38-6.36Z"/><path class="cls-4" d="M709.94,1296.37c-3.94,18.69-4.11,36.77,8.5,52.8,8.63,10.95,20.12,17.73,32.94,22.57,26,9.83,53.27,12.84,80.69,15.07,48.4,3.94,96.92,2.52,145.39,3.18,9.49.13,19,.3,28.5.46,1.66,2.84.76,5.31-2.31,5.28-10-.11-19.58,3.13-29.66,3.08-57.41-.31-114.86,1-172.22-.72-28.36-.85-56.75-1.63-85.13-2.52-8.95-.28-17.65-3.13-26.71-2.71-5.21.24-6.88-3.32-6.68-7.86.73-16.91-1.33-33.91,1.88-50.75a96.07,96.07,0,0,0,1.09-13.38C687.13,1300.94,689.53,1298.43,709.94,1296.37Z"/><path class="cls-2" d="M739.1,1059.75c32.21,4.07,64.65,1.82,96.95,3.29,7.58,14,9.64,27.92-.57,41.67-32.34-1.09-64.75-.29-97-3.22C731,1087.45,733.31,1073.57,739.1,1059.75Z"/><path class="cls-2" d="M735,1127.72l101.55,1.45c9.83,17.14,9.42,25.12-2,40-32.24-2.68-64.58-1.21-96.86-2.17C726.13,1154.64,726.11,1141.48,735,1127.72Z"/><path class="cls-2" d="M732.5,1191.48l104,2.55c9.64,13.56,5.45,25.79-3.6,37.55L736,1230.36C728.48,1218,724,1205.31,732.5,1191.48Z"/><path class="cls-5" d="M978,1341.83c-4.07,1.93-6.65-1.11-9.22-3.13-33.53-26.34-72.41-39.27-113.88-45.84-6.89-1.09-13.75-2.34-20.61-3.56a12.82,12.82,0,0,1-2.38-1.48c6-4.48,12.39-2.35,18.17-2.78,6.45-.47,13-.23,19.44-.31,39.44,3.81,75.22,16.09,104,44.68,1,1,2.58,1.26,3.89,1.87C975.21,1334.93,979.24,1338.24,978,1341.83Z"/><path class="cls-5" d="M835.48,1104.71c10.21-13.75,8.15-27.68.57-41.67,12.26-6,24.21-3.79,35.24,2.64,9.44,5.5,12.87,16.15,10,26-2.49,8.51-11.4,16-21.29,16C851.82,1107.74,843,1110.52,835.48,1104.71Z"/><path class="cls-4" d="M739.1,1059.75c-5.79,13.82-8.1,27.7-.66,41.74-13.21,5.11-26,5.57-37.14-4.65-13.61-12.53-9-32.64,9.26-38.71C719.84,1055,729.9,1053.94,739.1,1059.75Z"/><path class="cls-4" d="M735,1127.72c-8.86,13.76-8.84,26.92,2.65,39.31-13.34,6.86-26.22,2.5-38-3.41-8.88-4.48-11.68-15.35-8.82-23.26,3.8-10.54,15.79-18.84,27.13-17.26C723.65,1123.9,730.05,1123.55,735,1127.72Z"/><path class="cls-5" d="M834.48,1169.2c11.46-14.91,11.87-22.89,2-40,9.22-3.33,18.57-1.81,27.48.5,8.68,2.26,14.71,11.95,14.64,20.58-.07,9.4-5.24,17.58-14.72,20.33C854.2,1173.4,844,1176.38,834.48,1169.2Z"/><path class="cls-4" d="M732.5,1191.48c-8.47,13.83-4,26.49,3.5,38.88-8.9.16-17.84.86-26.72.37-12.83-.7-20-8.73-20-21.17,0-11.72,8-20.7,20.36-21C717.22,1188.31,725.5,1185.82,732.5,1191.48Z"/><path class="cls-5" d="M832.85,1231.58c9-11.76,13.24-24,3.6-37.55,9-4.81,18.34-3.86,27.1-.42,15,5.88,17.93,24.44,6.24,35.5C861.12,1237.3,844.76,1238.4,832.85,1231.58Z"/><path class="cls-2" d="M734.71,1254.9c32.49.51,65,.43,97.45,2.47.73,1.9,1.45,3.79,2.17,5.69-35.09-.17-69.82,4-104.52,8.62A32.37,32.37,0,0,1,734.71,1254.9Z"/><path class="cls-4" d="M734.71,1254.9a32.37,32.37,0,0,0-4.9,16.78,177.69,177.69,0,0,0-30.42,6.22c-3.69,1.08-8.15,2.67-11.12-1-3.29-4-1.09-8.4.78-12.51,2.37-5.23,6.15-9.55,11.55-10.86C712,1250.8,723.58,1248.56,734.71,1254.9Z"/><path class="cls-5" d="M834.33,1263.06c-.72-1.9-1.44-3.79-2.17-5.69,12.62-5.69,24.4-4.46,35.33,5.69Z"/><path class="cls-5" d="M978,1341.83c1.29-3.59-2.74-6.9-.56-10.55l7.13,9.69-1.44,1.55a16.76,16.76,0,0,0-2.46-.14l-2.85-.77Z"/><path class="cls-2" d="M408.32,1272c18.25-3.76,36.79-3,55-1.09,33.61,3.56,67.18,8.11,100,16.74,6.23,1.64,12.29,4,18.43,6a17.47,17.47,0,0,0,.08,3c8.13,41-15.07,60.78-42.82,69.6a188,188,0,0,1-48.45,8.58c-69,3.16-137.57-2.89-206.15-8.85,2.47-18.64,11.15-34.25,23.48-48.09,1.69-1.9,3.41-3.49,6.18-3.16.82,3.63-2.81,5.76-3,9a4.9,4.9,0,0,0-1,.76c-.13.15,0,.53.05.81.94-.1,1.19-.68.75-1.75,4.65,1.77,7.51-1.68,10.6-3.88,28.16-20.13,59.66-31.56,93.78-36.11,17-2.26,34-4.1,51.89-6.23C447.14,1272,427.67,1272.68,408.32,1272Z"/><path class="cls-4" d="M284.36,1365.9c68.58,6,137.17,12,206.15,8.85a188,188,0,0,0,48.45-8.58c27.75-8.82,50.95-28.56,42.82-69.6a17.47,17.47,0,0,1-.08-3c2.87.82,5.69,2,8.61,2.39,10.43,1.55,14.35,8.77,14.55,17.94.53,23.51.34,47,.58,70.54.07,6.74-3.56,8.61-9.48,8.34-20.44-.91-41,1.71-61.33-2.31a26,26,0,0,0-6-.3c-33.52,1.22-66.91-2.25-100.29-4-31.77-1.65-63.63-3.84-95.33-7.55-11.83-1.39-23.7-3.18-35.65-4C291.68,1374.29,284.72,1374.69,284.36,1365.9Z"/><path class="cls-2" d="M462.53,1118.93,563,1122.66c8.29,13.8,9.94,27.13-2.77,39.45l-96.65-3.66C452.38,1145.57,452.64,1132.38,462.53,1118.93Z"/><path class="cls-2" d="M560.12,1098c-31.58-3.77-63.47-1.34-95.07-4.83-8.12-14-7.26-27.55,1.53-40.86l95.73,4.08C567.83,1070.58,570.56,1084.64,560.12,1098Z"/><path class="cls-2" d="M460.87,1182.56l102.27,5.32c9.76,13.44,3.67,25.34-3.59,37.13-32.33.51-64.53-2.89-96.83-3.44C454.6,1208.92,450.07,1196.1,460.87,1182.56Z"/><path class="cls-5" d="M408.32,1272c19.35.72,38.82.08,58.69,5.33-17.85,2.13-34.9,4-51.89,6.23-34.12,4.55-65.62,16-93.78,36.11-3.09,2.2-5.95,5.65-10.6,3.88l.23.18c.24-3.28,3.87-5.41,3-9l-.11.15c2.07-.06,3-1.22,3.11-3.2l-.16.16a3.21,3.21,0,0,0,3.16-3.19l-.18.19a3.43,3.43,0,0,0,2.84-3.76C347.66,1284.75,376.7,1275,408.32,1272Z"/><path class="cls-5" d="M466.58,1052.3c-8.79,13.31-9.65,26.91-1.53,40.86-17.23,10-42.8-1.06-45-19.7-.95-8,2.26-14.66,8.33-19.76C437.75,1045.81,456.69,1045.22,466.58,1052.3Z"/><path class="cls-4" d="M560.12,1098c10.44-13.35,7.71-27.41,2.19-41.61,14.19-7,27.17-3.41,38.29,6.08,11.36,9.68,8.72,27.14-5.43,34.89C584.09,1103.41,571.92,1104.42,560.12,1098Z"/><path class="cls-4" d="M560.24,1162.11c12.71-12.32,11.06-25.65,2.77-39.45,14.27-5.71,27.3-2.16,38.53,6.9,6.51,5.26,9.07,13.52,5.33,21.79-4.21,9.28-12.08,15.82-22.14,15.27C576.66,1166.19,567.77,1166.85,560.24,1162.11Z"/><path class="cls-4" d="M559.55,1225c7.26-11.79,13.35-23.69,3.59-37.13,8.43-5,17.54-3.15,26-1.3,11.17,2.45,17.31,12.24,16.56,23.35-.68,10.25-9.16,19-20.47,20.17C576.31,1231,567.34,1230.62,559.55,1225Z"/><path class="cls-5" d="M462.53,1118.93c-9.89,13.45-10.15,26.64,1.06,39.52-10.66,5.18-21.17,3.15-31-1.81-8.92-4.49-11.95-12.78-11-22.55,1-9.54,6.53-15.32,15.38-17.92S454.46,1114,462.53,1118.93Z"/><path class="cls-5" d="M460.87,1182.56c-10.8,13.54-6.27,26.36,1.85,39-9.07,4.62-18.44,3.18-27.33.17-10.37-3.52-17-15.21-15.29-24.7,1.93-10.58,10.52-17.72,22.41-17.58C448.67,1179.54,455.49,1177.28,460.87,1182.56Z"/><path class="cls-2" d="M563,1266.65c-13.5-.26-26.36-4.55-39.62-6.37q-31.68-4.35-63.36-8.73l2.19-5.38,97.37,5.35A26,26,0,0,1,563,1266.65Z"/><path class="cls-4" d="M563,1266.65a26,26,0,0,0-3.42-15.13c10.35-5.45,21-3.85,31.5-.86,6.57,1.89,10.67,7.14,13,13.51,1.55,4.25,2.84,9.06-.52,12.7s-7.56.34-11-1C582.88,1272.16,572.1,1272.07,563,1266.65Z"/><path class="cls-5" d="M462.19,1246.17l-2.19,5.38H424.75C435.45,1240.64,447.71,1239.5,462.19,1246.17Z"/><path class="cls-10" d="M322.68,1305a3.43,3.43,0,0,1-2.84,3.76C320,1306.91,321.22,1305.87,322.68,1305Z"/><path class="cls-10" d="M320,1308.57a3.21,3.21,0,0,1-3.16,3.19C316.91,1309.7,318.05,1308.72,320,1308.57Z"/><path class="cls-10" d="M317,1311.6c-.1,2-1,3.14-3.11,3.2C313.85,1312.67,314.91,1311.62,317,1311.6Z"/><path class="cls-5" d="M980.62,1342.38a16.76,16.76,0,0,1,2.46.14c.26,2.22,1.87,5.32-.38,6.37-2.07,1-4-1.5-5-3.8Z"/><path class="cls-5" d="M980.62,1342.38l-2.89,2.71a2.57,2.57,0,0,1,0-3.48Z"/><path class="cls-11" d="M310.74,1323.51c.44,1.07.19,1.65-.75,1.75,0-.28-.18-.66-.05-.81a4.9,4.9,0,0,1,1-.76Z"/><polygon class="cls-12" points="329.4 638.29 318.44 958.71 921.66 988.83 948.42 658.96 329.4 638.29"/><path class="cls-13" d="M982.48,1024.88a30.53,30.53,0,1,1-25-35.22A30.53,30.53,0,0,1,982.48,1024.88Z"/><path class="cls-8" d="M959.46,1012.85a13.81,13.81,0,1,1-11.3-15.94A13.81,13.81,0,0,1,959.46,1012.85Z"/><path d="M963.32,326.33l-29.67-1.44a112,112,0,0,0-221-22c-9.77-10.39-33.57-10.41-45.11-10.41s-35.34,0-45.11,10.41a112,112,0,0,0-221,22l-29.67,1.44v15.08l30.23-.6a112.06,112.06,0,0,0,223.47-12.05,113.37,113.37,0,0,0-.7-12.43,4.07,4.07,0,0,0,0-.78,9.41,9.41,0,0,1,2.17-7.88c7.54-8.6,30.71-8.6,40.6-8.6s33.06,0,40.6,8.6a9.44,9.44,0,0,1,2.18,7.88,3.39,3.39,0,0,0,0,.78,113.37,113.37,0,0,0-.7,12.43,112.06,112.06,0,0,0,223.47,12.05l30.23.6ZM513.41,434.25A105.49,105.49,0,1,1,618.9,328.76,105.6,105.6,0,0,1,513.41,434.25Zm308.28,0A105.49,105.49,0,1,1,927.17,328.76,105.61,105.61,0,0,1,821.69,434.25Z"/><path class="cls-4" d="M380.34,274.05s-.83,35.79-3.55,40.8-15.47,8.48-15.47,8.48L357.07,298s8.5-11.19,8.89-14.16S380.34,274.05,380.34,274.05Z"/><path class="cls-13" d="M347,1015.65a30.53,30.53,0,1,1-25-35.22A30.53,30.53,0,0,1,347,1015.65Z"/><path class="cls-8" d="M323.93,1003.62a13.81,13.81,0,1,1-11.29-15.93A13.81,13.81,0,0,1,323.93,1003.62Z"/><text class="cls-14" transform="translate(538.49 956.15)">DESIGN</text><circle class="cls-15" cx="548.4" cy="680.72" r="11.48"/><circle class="cls-15" cx="548.4" cy="707.5" r="11.48"/><circle class="cls-15" cx="548.4" cy="734.29" r="11.48"/><circle class="cls-15" cx="548.4" cy="761.08" r="11.48"/><circle class="cls-15" cx="548.4" cy="787.86" r="11.48"/><circle class="cls-15" cx="548.4" cy="814.65" r="11.48"/><circle class="cls-15" cx="548.4" cy="841.44" r="11.48"/><circle class="cls-15" cx="548.4" cy="868.22" r="11.48"/><circle class="cls-15" cx="548.4" cy="895.01" r="11.48"/><circle class="cls-15" cx="575.19" cy="895.01" r="11.48"/><circle class="cls-15" cx="653.63" cy="692.2" r="11.48"/><circle class="cls-15" cx="653.63" cy="717.07" r="11.48"/><circle class="cls-15" cx="653.63" cy="741.94" r="11.48"/><circle class="cls-15" cx="653.63" cy="766.82" r="11.48"/><circle class="cls-15" cx="653.63" cy="791.69" r="11.48"/><circle class="cls-15" cx="653.63" cy="816.56" r="11.48"/><circle class="cls-15" cx="653.63" cy="843.35" r="11.48"/><circle class="cls-15" cx="653.63" cy="872.05" r="11.48"/><circle class="cls-15" cx="659.37" cy="902.66" r="11.48"/><circle class="cls-15" cx="638.33" cy="671.15" r="11.48"/><circle class="cls-15" cx="619.19" cy="713.24" r="11.48"/><circle class="cls-15" cx="619.19" cy="688.37" r="11.48"/><circle class="cls-15" cx="619.19" cy="740.03" r="11.48"/><circle class="cls-15" cx="619.19" cy="766.82" r="11.48"/><circle class="cls-15" cx="619.19" cy="793.6" r="11.48"/><circle class="cls-15" cx="619.19" cy="820.39" r="11.48"/><circle class="cls-15" cx="619.19" cy="847.18" r="11.48"/><circle class="cls-15" cx="636.41" cy="893.1" r="11.48"/><circle class="cls-15" cx="619.19" cy="873.96" r="11.48"/><circle class="cls-15" cx="697.64" cy="699.85" r="11.48"/><circle class="cls-15" cx="705.29" cy="674.98" r="11.48"/><circle class="cls-15" cx="730.16" cy="680.72" r="11.48"/><circle class="cls-15" cx="697.64" cy="724.72" r="11.48"/><circle class="cls-15" cx="697.64" cy="749.6" r="11.48"/><circle class="cls-15" cx="697.64" cy="774.47" r="11.48"/><circle class="cls-15" cx="697.64" cy="799.34" r="11.48"/><circle class="cls-15" cx="697.64" cy="824.22" r="11.48"/><circle class="cls-15" cx="697.64" cy="849.09" r="11.48"/><circle class="cls-15" cx="697.64" cy="873.96" r="11.48"/><circle class="cls-15" cx="715.81" cy="892.14" r="11.48"/><circle class="cls-15" cx="734.95" cy="874.92" r="11.48"/><circle class="cls-15" cx="724.42" cy="843.35" r="11.48"/></svg>