<?xml version="1.0" encoding="utf-8"?>
<!-- Generator: Adobe Illustrator 25.4.1, SVG Export Plug-In . SVG Version: 6.00 Build 0)  -->
<svg version="1.1" id="ab47acfe-844d-4101-aa7b-df38aa50dbe4"
	 xmlns="http://www.w3.org/2000/svg" xmlns:xlink="http://www.w3.org/1999/xlink" x="0px" y="0px" viewBox="0 0 971.1 628.4"
	 style="enable-background:new 0 0 971.1 628.4;" xml:space="preserve">
<style type="text/css">
	.st0{fill:#FFFFFF;}
	.st1{fill:#A7D094;}
	.st2{fill:#CACACA;}
	.st3{fill:#F2F2F2;}
	.st4{fill:#E6E6E6;}
	.st5{fill:#2D2A26;}
	.st6{fill:#2F2E41;}
	.st7{fill:#FCCACA;}
	.st8{fill:#FF7E60;}
	.st9{fill:#0D6EFD;}
	.st10{fill:#FFB8B8;}
	.st11{fill:#A1ACB5;}
	.st12{fill:#3F3D56;}
	.st13{fill:#4C5A69;}
	.st14{fill:#330D2B;}
	.st15{fill:#F7F9FA;}
	.st16{fill:#FBF8FB;}
	.st17{fill:#DECADC;}
	.st18{fill:#0093D0;}
	.st19{fill:#0082C3;}
	.st20{fill:#00AEE7;}
	.st21{fill:#875EA6;}
	.st22{fill:#F1F0EE;}
	.st23{fill:#80549B;}
	.st24{fill:#744E9F;}
	.st25{fill:#FBD433;}
	.st26{fill:#F6B629;}
	.st27{fill:#FFE597;}
	.st28{fill:#658CA3;}
	.st29{fill:#344B66;}
	.st30{fill:none;stroke:#F6921E;stroke-width:14.967;stroke-miterlimit:10;}
	.st31{fill:#EA5260;}
	.st32{fill:#0E5386;}
	.st33{fill:#0F4767;}
	.st34{fill:none;stroke:#0F4767;stroke-width:12.22;stroke-miterlimit:10;}
	.st35{fill:#719DC7;}
	.st36{opacity:0.3;fill:#00B8C4;}
	.st37{fill:#000E44;}
</style>
<polygon class="st0" points="503.8,265.6 630,138.4 689.6,138.4 689.6,136.4 629.1,136.4 628.9,136.7 502.4,264.2 "/>
<g>
	<path class="st1" d="M224.4,99.4l-13.5,6.6l12.8,26.2l13.5-6.6c3.2,3.7,6.8,6.8,10.8,9.5l-4.9,14.3l27.6,9.4l4.9-14.3
		c4.7,0.3,9.6,0,14.3-0.9l6.6,13.5l26.2-12.8l-6.6-13.5c3.7-3.2,6.8-6.8,9.5-10.8l14.3,4.9l4.7-13.8l4.7-13.8L335,92.4
		c0.3-4.7,0-9.6-0.9-14.3l13.5-6.6l-12.8-26.2l-13.5,6.6c-3.2-3.7-6.8-6.8-10.8-9.5l4.9-14.3l-13.8-4.7l-13.8-4.7L282.9,33
		c-4.7-0.3-9.6,0-14.3,0.9l-6.6-13.5l-26.2,12.8l6.6,13.5c-3.7,3.2-6.8,6.8-9.5,10.8l-14.3-4.9l-4.7,13.8l-4.7,13.8l14.3,4.9
		C223.2,89.8,223.5,94.6,224.4,99.4z M252.7,85.5c0.2-1.8,0.6-3.7,1.2-5.4c0.6-1.8,1.4-3.4,2.3-5.1c1.7-2.8,3.8-5.3,6.4-7.3
		c1.4-1.1,3-2.1,4.7-3c1.7-0.8,3.5-1.5,5.2-1.9c3.2-0.8,6.5-1,9.8-0.6c1.8,0.2,3.7,0.6,5.4,1.2c1.8,0.6,3.4,1.4,5,2.3
		c2.8,1.7,5.3,3.8,7.3,6.4c1.1,1.4,2.1,3,3,4.7c0.8,1.7,1.5,3.5,1.9,5.2c0.8,3.2,1,6.5,0.6,9.8c-0.2,1.8-0.6,3.7-1.2,5.4
		c-0.6,1.8-1.4,3.4-2.3,5c-1.7,2.8-3.8,5.3-6.4,7.3c-1.4,1.1-3,2.1-4.7,3c-1.7,0.8-3.5,1.5-5.2,1.9c-3.2,0.8-6.5,1-9.8,0.6
		c-1.8-0.2-3.7-0.6-5.4-1.2c-1.8-0.6-3.4-1.4-5-2.3c-2.8-1.7-5.3-3.8-7.3-6.4c-1.1-1.4-2.1-3-3-4.7c-0.8-1.7-1.5-3.5-1.9-5.2
		C252.5,92,252.4,88.7,252.7,85.5z M294.2,215.7l18.4-18.4l-35.4-35.4l-18.4,18.4c-7.1-4.1-14.7-7.3-22.8-9.5v-25.9h-50.1v25.9
		c-8.1,2.2-15.7,5.4-22.8,9.5l-18.4-18.4L127,179.6l-17.7,17.7l18.4,18.4c-4.1,7.1-7.3,14.7-9.5,22.8H92.2v50.1h25.9
		c2.2,8.1,5.4,15.7,9.5,22.8l-18.4,18.4l17.7,17.7l17.7,17.7l18.4-18.4c7.1,4.1,14.7,7.3,22.8,9.5v25.9H236v-25.9
		c8.1-2.2,15.7-5.4,22.8-9.5l18.4,18.4l35.4-35.4l-18.4-18.4c4.1-7.1,7.3-14.7,9.5-22.8h25.9v-50.1h-25.9
		C301.5,230.4,298.3,222.7,294.2,215.7z M255.9,273.1c-1.2,5.6-3.4,10.9-6.5,15.5c-1.8,2.7-3.8,5.2-6,7.4c-2.3,2.3-4.8,4.3-7.4,6
		c-4.7,3-9.9,5.3-15.5,6.5c-3.1,0.7-6.3,1-9.5,1c-3.3,0-6.5-0.3-9.5-1c-5.6-1.2-10.9-3.4-15.5-6.5c-2.7-1.8-5.2-3.8-7.4-6
		c-2.3-2.3-4.3-4.8-6-7.4c-3-4.7-5.3-9.9-6.5-15.5c-0.7-3.1-1-6.3-1-9.5c0-3.3,0.3-6.5,1-9.5c1.2-5.6,3.4-10.9,6.5-15.5
		c1.8-2.7,3.8-5.2,6-7.4c2.3-2.3,4.8-4.3,7.4-6c4.7-3,9.9-5.3,15.5-6.5c3.1-0.7,6.3-1,9.5-1c3.3,0,6.5,0.4,9.5,1
		c5.6,1.2,10.9,3.4,15.5,6.5c2.7,1.8,5.2,3.8,7.4,6c2.3,2.3,4.3,4.8,6,7.4c3,4.7,5.3,9.9,6.5,15.5c0.7,3.1,1,6.3,1,9.5
		C256.9,266.8,256.5,270,255.9,273.1z M428.9,196c0.4-4.4,0.3-9-0.5-13.5l12.9-5.9l-11.4-24.9l-12.9,5.9c-2.9-3.5-6.2-6.6-9.9-9.2
		l4.9-13.3l-12.8-4.8l-12.8-4.8l-4.9,13.3c-4.4-0.4-9-0.3-13.5,0.5l-5.9-12.9l-24.9,11.4l5.9,12.9c-3.5,2.9-6.6,6.2-9.2,9.9
		l-13.3-4.9l-9.6,25.6l13.3,4.9c-0.4,4.4-0.3,9,0.5,13.5l-12.9,5.9l11.4,24.9l12.9-5.9c2.9,3.5,6.2,6.6,9.9,9.2l-4.9,13.3l12.8,4.8
		l12.8,4.8l4.9-13.3c4.4,0.4,9,0.3,13.5-0.5l5.9,12.9l24.9-11.4l-5.9-12.9c3.5-2.9,6.6-6.2,9.2-9.9l13.3,4.9l9.6-25.6L428.9,196z
		 M401.5,194.8c-0.3,1.7-0.7,3.4-1.3,5.1c-0.6,1.6-1.4,3.2-2.3,4.7c-1.6,2.6-3.7,4.9-6.2,6.7c-1.4,1-2.9,1.9-4.5,2.7
		c-1.6,0.7-3.3,1.3-5,1.7c-3.1,0.7-6.2,0.8-9.2,0.3c-1.7-0.3-3.4-0.7-5.1-1.3c-1.6-0.6-3.2-1.4-4.7-2.3c-2.6-1.6-4.9-3.7-6.7-6.2
		c-1-1.4-1.9-2.9-2.7-4.5c-0.7-1.6-1.3-3.3-1.7-5c-0.7-3.1-0.8-6.2-0.3-9.2c0.3-1.7,0.7-3.4,1.3-5.1c0.6-1.6,1.4-3.2,2.3-4.7
		c1.6-2.6,3.7-4.9,6.2-6.7c1.4-1,2.9-1.9,4.5-2.7c1.6-0.7,3.3-1.3,5-1.7c3.1-0.7,6.2-0.8,9.2-0.3c1.7,0.3,3.4,0.7,5.1,1.3
		c1.6,0.6,3.2,1.4,4.7,2.3c2.6,1.6,4.9,3.7,6.7,6.2c1,1.4,1.9,2.9,2.7,4.5c0.7,1.6,1.3,3.3,1.7,5
		C401.8,188.7,401.9,191.8,401.5,194.8z"/>
	<path class="st2" d="M733.5,500.4L733.5,500.4c-2.7-17.9-3.4-36.1-2.1-54.1l2.1-29.9l0,0C721.9,439.4,724.5,469.6,733.5,500.4
		L733.5,500.4z"/>
	<path class="st2" d="M742.5,505.4L742.5,505.4c-1.3-10.7-1.6-21.5-1-32.2l1-17.8l0,0C736.9,469.1,738.2,487.1,742.5,505.4z"/>
	<path class="st3" d="M782.5,527.4v10c0,1.7-1.3,3-3,3h-5c-0.6,0-1,0.4-1,1c0,0,0,0,0,0v82c0,1.7-1.3,3-3,3h-61c-1.7,0-3-1.3-3-3
		v-82c0-0.6-0.4-1-1-1h-6c-1.7,0-3-1.3-3-3v-10c0-1.7,1.3-3,3-3c0,0,0,0,0,0h80C781.1,524.4,782.5,525.8,782.5,527.4z"/>
	<rect x="706.6" y="542.5" class="st4" width="67" height="3"/>
	<path class="st4" d="M773.5,586.7c-22.4,9.3-45.1,9.4-68,0v-21.1c22.1-7.4,45.9-7.4,68,0V586.7z"/>
	<circle class="st5" cx="451.5" cy="214" r="36.4"/>
	<path class="st5" d="M461.6,178.6c20.1,0,36.4,16.3,36.4,36.4c0,6-1.5,12-4.4,17.3c12.5-15.7,10-38.6-5.7-51.1
		c-15.7-12.5-38.6-10-51.1,5.7c-1.4,1.7-2.6,3.5-3.6,5.5C440.1,183.6,450.6,178.6,461.6,178.6z"/>
	<circle class="st5" cx="383.5" cy="107" r="106.9"/>
	<path class="st6" d="M299.6,40.7c38.3-43.1,103.8-48,148.2-11.2c-0.9-0.8-1.7-1.7-2.6-2.5c-44.2-39.2-111.7-35.2-150.9,9
		C255,80.1,258.9,147.6,303,186.8c0.9,0.8,1.8,1.6,2.8,2.3C264,149.4,261.3,83.7,299.6,40.7z"/>
	<circle class="st7" cx="382.6" cy="144.1" r="68.9"/>
	<path class="st8" d="M417.7,231.7l-73.7,3.3c0,0,6.2,38.1-33.7,41.7c-39.9,3.6-76.1-7.2-90.6,19.9c-14.5,27.2-8.2,124-8.2,124
		s27.2,97.9,48.9,112.3s212-5.4,212-5.4L552.1,427l-2.7-77.5c-1.4-40.5-38.4-70.9-78.2-63.4c-0.8,0.1-1.6,0.3-2.4,0.5
		c-1.2,0.3-8.7-6.5-32.7-18.5C421.4,260.7,417.7,231.7,417.7,231.7z"/>
	<path class="st6" d="M257.8,274.9c0,0,17.5,31.8,10.3,77.1c-7.2,45.3,23.2,141.1,23.2,141.1l21.7-5.4c0,0-14.5-94.2-10.9-116
		s4.6-85.9-13.5-96.8S257.8,274.9,257.8,274.9z"/>
	<path class="st6" d="M467.5,291.6l7.6,200.6l14.5,9.1c0,0,20.8-220.2,10-220.2h-22.1c-5.5,0-10,4.5-10,10l0,0
		C467.5,291.3,467.5,291.4,467.5,291.6z"/>
	<circle class="st9" cx="301.2" cy="479.5" r="9.1"/>
	<circle class="st9" cx="482.4" cy="488.6" r="9.1"/>
	<polygon class="st5" points="323.7,58.1 323.7,126.9 339.6,126.9 359.9,105.2 357.2,126.9 427.7,126.9 423.3,105.2 432,126.9 
		443.3,126.9 443.3,58.1 	"/>
	<ellipse class="st10" cx="312.8" cy="129.6" rx="5.4" ry="10"/>
	<ellipse class="st10" cx="452.3" cy="129.6" rx="5.4" ry="10"/>
	<path class="st11" d="M603.2,608.4v6.1c0,1.7-0.3,3.3-0.9,4.9c-0.3,0.7-0.6,1.4-1,2c-2.4,4.1-6.8,6.6-11.5,6.6H143.2
		c-4.7,0-9.1-2.5-11.6-6.6c-0.4-0.6-0.7-1.3-1-2c-0.6-1.6-0.9-3.2-0.9-4.9v-6.1c0-7.4,6-13.4,13.4-13.4h0h25.7v-2.8
		c0-0.3,0.2-0.6,0.6-0.6h0h13.4c0.3,0,0.6,0.2,0.6,0.6v2.8h8.4v-2.8c0-0.3,0.2-0.6,0.6-0.6h0h13.4c0.3,0,0.6,0.2,0.6,0.6v2.8h8.4
		v-2.8c0-0.3,0.2-0.6,0.6-0.6h0h13.4c0.3,0,0.6,0.2,0.6,0.6v2.8h8.4v-2.8c0-0.3,0.2-0.6,0.6-0.6h0h13.4c0.3,0,0.6,0.2,0.6,0.6v2.8
		h8.4v-2.8c0-0.3,0.2-0.6,0.6-0.6h0h13.4c0.3,0,0.6,0.2,0.6,0.6v2.8h8.4v-2.8c0-0.3,0.2-0.6,0.6-0.6h0h13.4c0.3,0,0.6,0.2,0.6,0.6
		v2.8h8.4v-2.8c0-0.3,0.2-0.6,0.6-0.6l0,0h105.2c0.3,0,0.6,0.2,0.6,0.6l0,0v2.8h8.4v-2.8c0-0.3,0.2-0.6,0.6-0.6l0,0h13.4
		c0.3,0,0.6,0.3,0.6,0.6v2.8h8.4v-2.8c0-0.3,0.2-0.6,0.6-0.6l0,0h13.4c0.3,0,0.6,0.2,0.6,0.6l0,0v2.8h8.4v-2.8
		c0-0.3,0.2-0.6,0.6-0.6l0,0h13.4c0.3,0,0.6,0.2,0.6,0.6l0,0v2.8h8.4v-2.8c0-0.3,0.2-0.6,0.6-0.6l0,0h13.4c0.3,0,0.6,0.3,0.5,0.6
		v2.8h8.4v-2.8c0-0.3,0.2-0.6,0.6-0.6l0,0h13.4c0.3,0,0.6,0.2,0.6,0.6l0,0v2.8h8.4v-2.8c0-0.3,0.2-0.6,0.6-0.6l0,0H550
		c0.3,0,0.6,0.2,0.6,0.6l0,0v2.8h39.2C597.1,595,603.1,601,603.2,608.4L603.2,608.4z"/>
	<rect y="626.4" class="st12" width="971.1" height="2"/>
	<path class="st11" d="M567.2,352.8h-409c-6.2,0-11.3,5-11.3,11.3l0,0V592c0,6.2,5,11.3,11.3,11.3h409c6.2,0,11.3-5,11.3-11.3V364.1
		C578.5,357.9,573.4,352.8,567.2,352.8L567.2,352.8z"/>
	<circle class="st13" cx="363" cy="432.4" r="25"/>
	<g>
		<circle class="st14" cx="632.5" cy="139.7" r="25.6"/>
		<g>
			<path class="st15" d="M615.1,138.2l10.6-4.5l1,3l-7.7,3l7.7,3l-1,3l-10.6-4.5V138.2z"/>
			<path class="st15" d="M631.1,151.7h-3.8l8.3-23.8h3.7L631.1,151.7z"/>
			<path class="st15" d="M651.4,141.3l-10.6,4.5l-1-3l7.7-3l-7.7-3l1-3l10.6,4.5V141.3z"/>
		</g>
	</g>
	<g>
		<circle class="st14" cx="586.4" cy="93.5" r="30.5"/>
		<g>
			<path class="st16" d="M570.6,88c0.1,0.5,0.3,1,0.5,1.6c0.2,0.6,0.3,1.2,0.5,1.8c0.2,0.6,0.4,1.3,0.6,1.9c0.2,0.6,0.4,1.2,0.6,1.8
				c0.2-0.6,0.3-1.2,0.5-1.9c0.2-0.7,0.3-1.4,0.4-2.1c0.1-0.7,0.3-1.5,0.4-2.2c0.1-0.7,0.3-1.4,0.4-2.1h2.8c-0.4,2-0.9,4-1.4,6.1
				c-0.5,2.1-1.1,4-1.7,5.9h-2.5c-0.4-1.1-0.8-2.3-1.2-3.5c-0.4-1.2-0.8-2.4-1.1-3.7c-0.4,1.2-0.7,2.4-1.1,3.7
				c-0.4,1.2-0.8,2.4-1.2,3.5h-2.5c-0.6-1.9-1.2-3.8-1.7-5.9c-0.5-2.1-1-4.1-1.4-6.1h2.9c0.1,0.7,0.2,1.4,0.4,2.1
				c0.1,0.7,0.3,1.5,0.4,2.2c0.2,0.7,0.3,1.5,0.5,2.1c0.2,0.7,0.3,1.3,0.5,1.9c0.2-0.6,0.4-1.2,0.6-1.8c0.2-0.6,0.4-1.3,0.6-1.9
				c0.2-0.6,0.4-1.2,0.5-1.8c0.2-0.6,0.3-1.1,0.4-1.6H570.6z"/>
			<path class="st16" d="M587.5,88c0.1,0.5,0.3,1,0.5,1.6c0.2,0.6,0.3,1.2,0.5,1.8c0.2,0.6,0.4,1.3,0.6,1.9c0.2,0.6,0.4,1.2,0.6,1.8
				c0.2-0.6,0.3-1.2,0.5-1.9c0.2-0.7,0.3-1.4,0.4-2.1c0.1-0.7,0.3-1.5,0.4-2.2c0.1-0.7,0.3-1.4,0.4-2.1h2.8c-0.4,2-0.9,4-1.4,6.1
				c-0.5,2.1-1.1,4-1.7,5.9h-2.5c-0.4-1.1-0.8-2.3-1.2-3.5c-0.4-1.2-0.8-2.4-1.1-3.7c-0.4,1.2-0.7,2.4-1.1,3.7
				c-0.4,1.2-0.8,2.4-1.2,3.5h-2.5c-0.6-1.9-1.2-3.8-1.7-5.9c-0.5-2.1-1-4.1-1.4-6.1h2.9c0.1,0.7,0.2,1.4,0.4,2.1
				c0.1,0.7,0.3,1.5,0.4,2.2c0.2,0.7,0.3,1.5,0.5,2.1c0.2,0.7,0.3,1.3,0.5,1.9c0.2-0.6,0.4-1.2,0.6-1.8c0.2-0.6,0.4-1.3,0.6-1.9
				c0.2-0.6,0.4-1.2,0.5-1.8c0.2-0.6,0.3-1.1,0.4-1.6H587.5z"/>
			<path class="st16" d="M604.4,88c0.1,0.5,0.3,1,0.5,1.6c0.2,0.6,0.3,1.2,0.5,1.8c0.2,0.6,0.4,1.3,0.6,1.9c0.2,0.6,0.4,1.2,0.6,1.8
				c0.2-0.6,0.3-1.2,0.5-1.9c0.2-0.7,0.3-1.4,0.4-2.1c0.1-0.7,0.3-1.5,0.4-2.2c0.1-0.7,0.3-1.4,0.4-2.1h2.8c-0.4,2-0.9,4-1.4,6.1
				c-0.5,2.1-1.1,4-1.7,5.9h-2.5c-0.4-1.1-0.8-2.3-1.2-3.5c-0.4-1.2-0.8-2.4-1.1-3.7c-0.4,1.2-0.7,2.4-1.1,3.7
				c-0.4,1.2-0.8,2.4-1.2,3.5h-2.5c-0.6-1.9-1.2-3.8-1.7-5.9c-0.5-2.1-1-4.1-1.4-6.1h2.9c0.1,0.7,0.2,1.4,0.4,2.1
				c0.1,0.7,0.3,1.5,0.4,2.2c0.2,0.7,0.3,1.5,0.5,2.1c0.2,0.7,0.3,1.3,0.5,1.9c0.2-0.6,0.4-1.2,0.6-1.8c0.2-0.6,0.4-1.3,0.6-1.9
				c0.2-0.6,0.4-1.2,0.5-1.8c0.2-0.6,0.3-1.1,0.4-1.6H604.4z"/>
		</g>
	</g>
	<g>
		<ellipse transform="matrix(0.7557 -0.6549 0.6549 0.7557 18.406 416.0671)" class="st17" cx="566.9" cy="183.4" rx="18" ry="18"/>
		<circle class="st17" cx="538.7" cy="227.6" r="9"/>
		<path class="st17" d="M550.6,274.6c0-2.3-1.9-4.2-4.2-4.2s-4.2,1.9-4.2,4.2s1.9,4.2,4.2,4.2S550.6,276.9,550.6,274.6z"/>
	</g>
	<g>
		<circle class="st14" cx="603.4" cy="187" r="21.6"/>
		<g>
			<path class="st15" d="M593.7,182.1h1.9v8.4h-1.9V187h-3.2v3.6h-1.9v-8.4h1.9v3.2h3.2V182.1z"/>
			<path class="st15" d="M603.7,182.1v1.6h-2.5v6.8h-1.9v-6.8h-2.5v-1.6H603.7z"/>
			<path class="st15" d="M607,182.1c0.1,0.3,0.3,0.6,0.5,1c0.2,0.4,0.4,0.8,0.6,1.3c0.2,0.5,0.4,0.9,0.6,1.4
				c0.2,0.5,0.4,0.9,0.6,1.3c0.2-0.4,0.4-0.9,0.6-1.3c0.2-0.5,0.4-0.9,0.6-1.4c0.2-0.5,0.4-0.9,0.6-1.3c0.2-0.4,0.4-0.7,0.5-1h1.7
				c0.1,0.6,0.2,1.2,0.2,1.9c0.1,0.7,0.1,1.4,0.2,2.2c0.1,0.7,0.1,1.5,0.1,2.2c0,0.7,0.1,1.5,0.1,2.1h-1.8c0-0.8-0.1-1.7-0.1-2.7
				c0-1-0.1-1.9-0.2-2.9c-0.1,0.3-0.3,0.7-0.5,1.1c-0.2,0.4-0.4,0.8-0.5,1.2c-0.2,0.4-0.3,0.8-0.5,1.2c-0.2,0.4-0.3,0.7-0.4,1h-1.3
				c-0.1-0.3-0.3-0.6-0.4-1c-0.2-0.4-0.3-0.8-0.5-1.2c-0.2-0.4-0.3-0.8-0.5-1.2c-0.2-0.4-0.3-0.8-0.5-1.1c-0.1,1-0.1,1.9-0.2,2.9
				c0,1-0.1,1.8-0.1,2.7h-1.8c0-0.7,0.1-1.4,0.1-2.1c0-0.8,0.1-1.5,0.1-2.2c0.1-0.7,0.1-1.5,0.2-2.2c0.1-0.7,0.1-1.3,0.2-1.9H607z"
				/>
			<path class="st15" d="M621.3,188.9v1.6h-5.6v-8.4h1.9v6.8H621.3z"/>
		</g>
	</g>
	<g>
		
			<ellipse transform="matrix(0.9697 -0.2445 0.2445 0.9697 -33.1122 143.3988)" class="st14" cx="561.1" cy="205.1" rx="17.3" ry="17.3"/>
		<g>
			<path class="st15" d="M554.7,209.5c-1.4,0-2.5-0.4-3.2-1.2c-0.7-0.8-1.1-1.9-1.1-3.4c0-0.7,0.1-1.4,0.3-1.9
				c0.2-0.6,0.5-1,0.9-1.4c0.4-0.4,0.9-0.7,1.4-0.9c0.5-0.2,1.1-0.3,1.8-0.3c0.4,0,0.7,0,1,0.1c0.3,0.1,0.6,0.1,0.8,0.2
				c0.2,0.1,0.4,0.1,0.6,0.2c0.2,0.1,0.3,0.1,0.3,0.2l-0.6,1.6c-0.3-0.1-0.6-0.3-0.9-0.4c-0.4-0.1-0.8-0.2-1.2-0.2
				c-0.3,0-0.6,0-0.9,0.2c-0.3,0.1-0.5,0.3-0.8,0.5c-0.2,0.2-0.4,0.5-0.5,0.9c-0.1,0.4-0.2,0.8-0.2,1.3c0,0.4,0,0.8,0.1,1.1
				c0.1,0.3,0.2,0.6,0.4,0.9c0.2,0.3,0.5,0.5,0.8,0.6c0.3,0.1,0.7,0.2,1.2,0.2c0.3,0,0.5,0,0.8,0c0.2,0,0.4-0.1,0.6-0.1
				c0.2,0,0.3-0.1,0.5-0.2c0.1-0.1,0.3-0.1,0.4-0.2l0.5,1.6c-0.3,0.2-0.7,0.3-1.2,0.5C555.9,209.5,555.3,209.5,554.7,209.5z"/>
			<path class="st15" d="M561.4,207.9c0.3,0,0.5,0,0.7-0.1c0.2,0,0.3-0.1,0.4-0.2c0.1-0.1,0.2-0.2,0.2-0.3c0-0.1,0.1-0.2,0.1-0.4
				c0-0.3-0.1-0.5-0.4-0.7c-0.3-0.2-0.7-0.4-1.4-0.6c-0.3-0.1-0.6-0.2-0.9-0.3c-0.3-0.1-0.5-0.3-0.8-0.5c-0.2-0.2-0.4-0.4-0.6-0.7
				c-0.1-0.3-0.2-0.6-0.2-1c0-0.4,0.1-0.8,0.2-1.1c0.2-0.3,0.4-0.6,0.6-0.8c0.3-0.2,0.6-0.4,1-0.5c0.4-0.1,0.8-0.2,1.3-0.2
				c0.6,0,1.1,0.1,1.5,0.2c0.4,0.1,0.8,0.3,1.1,0.4l-0.6,1.5c-0.2-0.1-0.5-0.2-0.8-0.3c-0.3-0.1-0.7-0.1-1.1-0.1
				c-0.5,0-0.8,0.1-1,0.2c-0.2,0.1-0.3,0.3-0.3,0.6c0,0.2,0,0.3,0.1,0.4c0.1,0.1,0.2,0.2,0.3,0.3c0.1,0.1,0.3,0.2,0.5,0.2
				c0.2,0.1,0.4,0.1,0.6,0.2c0.5,0.2,0.8,0.3,1.2,0.5c0.3,0.2,0.6,0.4,0.8,0.6c0.2,0.2,0.4,0.5,0.5,0.8c0.1,0.3,0.2,0.6,0.2,1.1
				c0,0.8-0.3,1.4-0.9,1.9c-0.6,0.4-1.4,0.7-2.6,0.7c-0.4,0-0.7,0-1-0.1c-0.3,0-0.6-0.1-0.8-0.2c-0.2-0.1-0.4-0.1-0.6-0.2
				c-0.2-0.1-0.3-0.1-0.4-0.2l0.6-1.6c0.3,0.1,0.6,0.3,1,0.4C560.4,207.8,560.9,207.9,561.4,207.9z"/>
			<path class="st15" d="M568.7,207.9c0.3,0,0.5,0,0.7-0.1c0.2,0,0.3-0.1,0.4-0.2c0.1-0.1,0.2-0.2,0.2-0.3c0-0.1,0.1-0.2,0.1-0.4
				c0-0.3-0.1-0.5-0.4-0.7c-0.3-0.2-0.7-0.4-1.4-0.6c-0.3-0.1-0.6-0.2-0.9-0.3c-0.3-0.1-0.5-0.3-0.8-0.5c-0.2-0.2-0.4-0.4-0.6-0.7
				c-0.1-0.3-0.2-0.6-0.2-1c0-0.4,0.1-0.8,0.2-1.1c0.2-0.3,0.4-0.6,0.6-0.8c0.3-0.2,0.6-0.4,1-0.5c0.4-0.1,0.8-0.2,1.3-0.2
				c0.6,0,1.1,0.1,1.5,0.2c0.4,0.1,0.8,0.3,1.1,0.4l-0.6,1.5c-0.2-0.1-0.5-0.2-0.8-0.3c-0.3-0.1-0.7-0.1-1.1-0.1
				c-0.5,0-0.8,0.1-1,0.2c-0.2,0.1-0.3,0.3-0.3,0.6c0,0.2,0,0.3,0.1,0.4c0.1,0.1,0.2,0.2,0.3,0.3c0.1,0.1,0.3,0.2,0.5,0.2
				c0.2,0.1,0.4,0.1,0.6,0.2c0.5,0.2,0.8,0.3,1.2,0.5c0.3,0.2,0.6,0.4,0.8,0.6c0.2,0.2,0.4,0.5,0.5,0.8c0.1,0.3,0.2,0.6,0.2,1.1
				c0,0.8-0.3,1.4-0.9,1.9c-0.6,0.4-1.4,0.7-2.6,0.7c-0.4,0-0.7,0-1-0.1c-0.3,0-0.6-0.1-0.8-0.2c-0.2-0.1-0.4-0.1-0.6-0.2
				c-0.2-0.1-0.3-0.1-0.4-0.2l0.6-1.6c0.3,0.1,0.6,0.3,1,0.4C567.7,207.8,568.2,207.9,568.7,207.9z"/>
		</g>
	</g>
	<g>
		<circle class="st14" cx="574.7" cy="231" r="15.3"/>
		<g>
			<path class="st15" d="M567.1,227c1.1,0,2,0.2,2.6,0.6c0.6,0.4,0.9,1.1,0.9,2c0,0.9-0.3,1.6-0.9,2c-0.6,0.4-1.5,0.6-2.7,0.6h-0.5
				v2.6h-1.7v-7.6c0.4-0.1,0.8-0.1,1.2-0.2C566.4,227,566.8,227,567.1,227z M567.2,228.5c-0.1,0-0.2,0-0.4,0c-0.1,0-0.2,0-0.3,0v2.2
				h0.5c0.6,0,1.1-0.1,1.4-0.2c0.3-0.2,0.5-0.5,0.5-0.9c0-0.2,0-0.4-0.1-0.5c-0.1-0.1-0.2-0.3-0.3-0.3c-0.1-0.1-0.3-0.1-0.5-0.2
				C567.7,228.5,567.5,228.5,567.2,228.5z"/>
			<path class="st15" d="M576.6,227.1h1.7v7.7h-1.7v-3.3h-2.9v3.3h-1.7v-7.7h1.7v2.9h2.9V227.1z"/>
			<path class="st15" d="M582.4,227c1.1,0,2,0.2,2.6,0.6c0.6,0.4,0.9,1.1,0.9,2c0,0.9-0.3,1.6-0.9,2c-0.6,0.4-1.5,0.6-2.7,0.6h-0.5
				v2.6h-1.7v-7.6c0.4-0.1,0.8-0.1,1.2-0.2C581.7,227,582.1,227,582.4,227z M582.5,228.5c-0.1,0-0.2,0-0.4,0c-0.1,0-0.2,0-0.3,0v2.2
				h0.5c0.6,0,1.1-0.1,1.4-0.2c0.3-0.2,0.5-0.5,0.5-0.9c0-0.2,0-0.4-0.1-0.5c-0.1-0.1-0.2-0.3-0.3-0.3c-0.1-0.1-0.3-0.1-0.5-0.2
				C583,228.5,582.8,228.5,582.5,228.5z"/>
		</g>
	</g>
	<g>
		
			<ellipse transform="matrix(0.9813 -0.1927 0.1927 0.9813 -39.4978 110.7749)" class="st14" cx="549.7" cy="258.4" rx="11" ry="11"/>
		<g>
			<path class="st15" d="M548.2,259.7c0,0.4,0,0.8-0.1,1.2c-0.1,0.4-0.3,0.7-0.5,1c-0.2,0.3-0.6,0.5-1,0.7c-0.4,0.2-0.9,0.2-1.5,0.2
				c-0.6,0-1.1-0.1-1.5-0.2c-0.4-0.1-0.8-0.3-1-0.5l0.7-1.5c0.2,0.1,0.5,0.3,0.8,0.4c0.3,0.1,0.6,0.2,0.9,0.2c0.5,0,0.8-0.1,1-0.4
				c0.2-0.2,0.3-0.6,0.3-1.2v-5.7h2V259.7z"/>
			<path class="st15" d="M552.4,261.1c0.3,0,0.5,0,0.7-0.1c0.2,0,0.3-0.1,0.4-0.2c0.1-0.1,0.2-0.2,0.2-0.3c0-0.1,0.1-0.2,0.1-0.4
				c0-0.3-0.1-0.5-0.4-0.7c-0.3-0.2-0.7-0.4-1.4-0.6c-0.3-0.1-0.6-0.2-0.9-0.3c-0.3-0.1-0.5-0.3-0.8-0.5c-0.2-0.2-0.4-0.4-0.6-0.7
				c-0.1-0.3-0.2-0.6-0.2-1c0-0.4,0.1-0.8,0.2-1.1c0.2-0.3,0.4-0.6,0.6-0.8c0.3-0.2,0.6-0.4,1-0.5c0.4-0.1,0.8-0.2,1.3-0.2
				c0.6,0,1.1,0.1,1.5,0.2c0.4,0.1,0.8,0.3,1.1,0.4l-0.6,1.5c-0.2-0.1-0.5-0.2-0.8-0.3c-0.3-0.1-0.7-0.1-1.1-0.1
				c-0.5,0-0.8,0.1-1,0.2c-0.2,0.1-0.3,0.3-0.3,0.6c0,0.2,0,0.3,0.1,0.4c0.1,0.1,0.2,0.2,0.3,0.3c0.1,0.1,0.3,0.2,0.5,0.2
				c0.2,0.1,0.4,0.1,0.6,0.2c0.5,0.2,0.8,0.3,1.2,0.5c0.3,0.2,0.6,0.4,0.8,0.6c0.2,0.2,0.4,0.5,0.5,0.8c0.1,0.3,0.2,0.7,0.2,1.1
				c0,0.8-0.3,1.4-0.9,1.9c-0.6,0.4-1.4,0.7-2.6,0.7c-0.4,0-0.7,0-1-0.1c-0.3,0-0.6-0.1-0.8-0.2c-0.2-0.1-0.4-0.1-0.6-0.2
				c-0.2-0.1-0.3-0.1-0.4-0.2l0.6-1.6c0.3,0.1,0.6,0.3,1,0.4C551.4,261,551.9,261.1,552.4,261.1z"/>
		</g>
	</g>
	<g>
		<path class="st14" d="M566.9,283.4c0-4.1-3.3-7.4-7.4-7.4s-7.4,3.3-7.4,7.4c0,4.1,3.3,7.4,7.4,7.4S566.9,287.5,566.9,283.4z"/>
		<g>
			<path class="st15" d="M556.2,283c0.3,0,0.4-0.1,0.6-0.2c0.1-0.1,0.2-0.3,0.2-0.6v-1.3c0-0.2,0-0.5,0.1-0.6
				c0.1-0.2,0.2-0.3,0.3-0.5c0.1-0.1,0.3-0.2,0.6-0.3c0.2-0.1,0.5-0.1,0.9-0.1h0.2v1h-0.2c-0.3,0-0.4,0.1-0.5,0.2
				c-0.1,0.1-0.1,0.3-0.1,0.5v1.1c0,0.3,0,0.5-0.1,0.7c-0.1,0.2-0.2,0.4-0.5,0.5c0.2,0.1,0.4,0.3,0.5,0.5c0.1,0.2,0.1,0.5,0.1,0.7
				v1.1c0,0.2,0,0.4,0.1,0.5c0.1,0.1,0.3,0.2,0.5,0.2h0.2v1h-0.2c-0.4,0-0.7,0-0.9-0.1s-0.4-0.2-0.6-0.3c-0.1-0.1-0.2-0.3-0.3-0.5
				c-0.1-0.2-0.1-0.4-0.1-0.6v-1.3c0-0.2-0.1-0.4-0.2-0.6c-0.1-0.1-0.3-0.2-0.6-0.2V283z"/>
			<path class="st15" d="M562.7,284c-0.3,0-0.4,0.1-0.6,0.2c-0.1,0.1-0.2,0.3-0.2,0.6v1.3c0,0.2,0,0.5-0.1,0.6
				c-0.1,0.2-0.2,0.3-0.3,0.5c-0.1,0.1-0.3,0.2-0.6,0.3s-0.5,0.1-0.9,0.1h-0.2v-1h0.2c0.3,0,0.4-0.1,0.5-0.2
				c0.1-0.1,0.1-0.3,0.1-0.5v-1.1c0-0.3,0-0.5,0.1-0.7c0.1-0.2,0.2-0.4,0.5-0.5c-0.2-0.1-0.4-0.3-0.5-0.5c-0.1-0.2-0.1-0.5-0.1-0.7
				v-1.1c0-0.2,0-0.4-0.1-0.5c-0.1-0.1-0.3-0.2-0.5-0.2h-0.2v-1h0.2c0.4,0,0.7,0,0.9,0.1c0.2,0.1,0.4,0.2,0.6,0.3
				c0.1,0.1,0.2,0.3,0.3,0.5c0.1,0.2,0.1,0.4,0.1,0.6v1.3c0,0.2,0.1,0.4,0.2,0.6c0.1,0.1,0.3,0.2,0.6,0.2V284z"/>
		</g>
	</g>
	<g>
		<path class="st18" d="M194.8,115.5c1,4.2-1.5,8.4-5.6,9.4l-43.4,10.9c-4.2,1-8.4-1.5-9.4-5.6L128,97c-1-4.2,1.5-8.4,5.6-9.4
			L177,76.6c4.2-1,8.4,1.5,9.4,5.6L194.8,115.5z"/>
		<path class="st19" d="M154.8,125.6l-8.4-33.2c-1-4.2,1.5-8.4,5.6-9.4l-18.3,4.6c-4.2,1-6.7,5.3-5.6,9.4l8.4,33.2
			c1,4.2,5.3,6.7,9.4,5.6l18.3-4.6C160,132.2,155.8,129.7,154.8,125.6z"/>
		<path class="st19" d="M194.5,117.3l-43.4,10.9c-4.2,1-8.4-1.5-9.4-5.6l-8.4-33.2c-0.1-0.6-0.2-1.1-0.2-1.7C129.3,89,127,93,128,97
			l8.4,33.2c1,4.2,5.3,6.7,9.4,5.6l43.4-10.9c3.6-0.9,6-4.2,5.9-7.7C194.9,117.2,194.7,117.3,194.5,117.3z"/>
		<polygon class="st0" points="151.6,97 157.1,119.1 173.2,103.2 		"/>
		<path class="st20" d="M177,76.6l-10,2.5c4.2-1,8.4,1.5,9.4,5.6l8.4,33.2c1,4.2-1.5,8.4-5.6,9.4l10-2.5c4.2-1,6.7-5.3,5.6-9.4
			l-8.4-33.2C185.4,78.1,181.2,75.6,177,76.6z"/>
	</g>
	<g>
		
			<rect x="138.2" y="200.9" transform="matrix(0.4072 -0.9133 0.9133 0.4072 -116.299 282.7101)" class="st21" width="42.8" height="60.2"/>
		<polygon class="st21" points="140.9,199.1 174.7,197.1 195.8,223.6 163.6,222.1 		"/>
		
			<rect x="144.5" y="198.2" transform="matrix(0.4072 -0.9134 0.9134 0.4072 -101.6034 280.3948)" class="st22" width="41.4" height="40.6"/>
		<polygon class="st23" points="140.9,199.1 157.8,230.1 123.4,238.2 		"/>
		<polygon class="st23" points="195.8,223.6 161.4,231.7 178.4,262.7 		"/>
		<polygon class="st24" points="123.4,238.2 162.1,225.4 178.4,262.7 		"/>
	</g>
	<g>
		<circle class="st17" cx="522.2" cy="50.5" r="31.8"/>
		<g>
			<path class="st25" d="M538.4,43.4c0-9.3-7.5-16.9-16.9-16.9c-9.3,0-16.9,7.5-16.9,16.9c0,5.7,2.8,10.7,7.2,13.8h0
				c0,0,2.7,1.8,2.7,4.2v0.1c0,0-0.4,1.9,1.5,1.9h6h0.9h4.1c1.9,0,1.5-1.9,1.5-1.9v-0.1c0-2.5,2.7-4.2,2.7-4.2h-0.1
				C535.6,54.2,538.4,49.1,538.4,43.4z"/>
			<path class="st26" d="M538.4,43.4c0-1.5-0.2-3-0.6-4.4c0.1,0.9,0.1,1.7,0,2.6c-0.2,2.1-0.7,4.3-1.5,6.3c-0.8,1.8-1.7,3.6-3,5.2
				c-2.1,2.4-5.4,3.7-8.5,3.9c-2.7,0.1-6-0.1-8.1-1.9c-1.1-0.9-2.3-2.5-2.7-3.9c-1.2-3.5-1.5-7.5-1-11.2c0.7-5.2,3.4-9.7,8.1-12.2
				c0.7-0.4,1.5-0.7,2.3-1c-0.6-0.1-1.2-0.1-1.8-0.1c-9.3,0-16.9,7.5-16.9,16.9c0,5.7,2.8,10.7,7.2,13.8c0,0,2.7,1.8,2.7,4.2v0.1
				c0,0-0.4,1.9,1.5,1.9h11c1.9,0,1.5-1.9,1.5-1.9v-0.1c0-2.5,2.7-4.2,2.7-4.2h-0.1C535.6,54.2,538.4,49.1,538.4,43.4z"/>
			<path class="st27" d="M529.6,31c3.8,2.1,5.9,5.5,4.7,7.6c-1.2,2.1-5.2,2.1-9,0c-3.8-2.1-5.9-5.5-4.7-7.6
				C521.8,29,525.9,28.9,529.6,31z"/>
			<path class="st28" d="M528.9,65c0,0.6,0,1.1-0.7,1.1h-12.6c-0.8,0-1-0.5-1-1.1v-0.5c0-0.6,0.6-1.1,1.4-1.1h11.5
				c0.8,0,1.4,0.5,1.4,1.1V65z"/>
			<path class="st28" d="M528.9,67.7c0,0.6-0.6,1.1-1.4,1.1H516c-0.8,0-1.4-0.5-1.4-1.1v-0.5c0-0.6,0.2-1.1,1-1.1h12.6
				c0.8,0,0.7,0.5,0.7,1.1V67.7z"/>
			<path class="st28" d="M525.6,71.5c0,0,1,0,1.4-1l0.5-1.7h-11.6l0.5,1.7c0.4,1,1.4,1,1.4,1H525.6z"/>
			<path class="st29" d="M519,71.5c0.4,1.1,1.5,1.9,2.7,1.9c1.3,0,2.3-0.8,2.7-1.9H519z"/>
			<g>
				<path class="st29" d="M515.6,66.1c0,0,0.8-0.3,1.9-0.5c1.2-0.2,2.7-0.4,4.2-0.4c1.5,0,3.1,0.1,4.2,0.4c1.2,0.2,1.9,0.5,1.9,0.5
					s-0.8,0.3-1.9,0.5c-1.2,0.2-2.7,0.4-4.2,0.4c-1.5,0-3.1-0.1-4.2-0.4C516.3,66.4,515.6,66.1,515.6,66.1z"/>
			</g>
			<g>
				<path class="st29" d="M516.5,68.8c0,0,0.7-0.3,1.6-0.5c1-0.2,2.3-0.4,3.6-0.4c1.3,0,2.6,0.1,3.6,0.4c1,0.2,1.6,0.5,1.6,0.5
					s-0.7,0.3-1.6,0.5c-1,0.2-2.3,0.4-3.6,0.4c-1.3,0-2.6-0.1-3.6-0.4C517.2,69.1,516.5,68.8,516.5,68.8z"/>
			</g>
			<path class="st30" d="M519.5,63.4V52.9c0-0.6,0-1.1,0-1.7c0-0.6,0-1.6-0.2-2.2c-0.2-0.9-0.9-1.7-2-1.5c-1.6,0.4-1.3,2.7,0.1,3.2
				c0.9,0.3,1.7,0.2,3.4,0.2h2.6c1.7,0,2.5,0.1,3.4-0.2c1.4-0.5,1.7-2.8,0.1-3.2c-1.1-0.3-1.8,0.5-2,1.5c-0.2,0.6-0.2,1.5-0.2,2.2
				c0,0.6,0,1.1,0,1.7v10.6"/>
		</g>
	</g>
	<g>
		<g>
			<path class="st31" d="M254.5,173.9c0,17.1-13.8,30.9-30.9,30.9c-17.1,0-30.9-13.8-30.9-30.9c0-17.1,13.8-30.9,30.9-30.9
				C240.7,143,254.5,156.8,254.5,173.9z"/>
			<path class="st0" d="M246.7,173.9c0,12.7-10.3,23-23,23c-12.7,0-23-10.3-23-23c0-12.7,10.3-23,23-23
				C236.3,150.8,246.7,161.1,246.7,173.9z"/>
			<path class="st31" d="M240.9,173.9c0,9.5-7.7,17.3-17.3,17.3c-9.5,0-17.3-7.7-17.3-17.3c0-9.5,7.7-17.3,17.3-17.3
				C233.2,156.6,240.9,164.3,240.9,173.9z"/>
			<path class="st0" d="M232.2,173.9c0,4.7-3.8,8.6-8.6,8.6c-4.7,0-8.6-3.8-8.6-8.6c0-4.7,3.8-8.6,8.6-8.6
				C228.4,165.3,232.2,169.1,232.2,173.9z"/>
			<path class="st31" d="M226.4,173.9c0,1.6-1.3,2.8-2.8,2.8c-1.6,0-2.8-1.3-2.8-2.8c0-1.6,1.3-2.8,2.8-2.8
				C225.2,171.1,226.4,172.3,226.4,173.9z"/>
		</g>
		<g>
			<polygon class="st32" points="252.5,144.8 238,159.3 238,147.6 253.7,131.9 			"/>
			<polygon class="st33" points="252.5,144.8 238,159.3 249.8,159.3 265.5,143.6 			"/>
			<line class="st34" x1="238.9" y1="158.5" x2="223.6" y2="173.9"/>
		</g>
	</g>
	<g>
		
			<rect x="146.6" y="294.4" transform="matrix(0.8391 -0.5439 0.5439 0.8391 -138.379 128.5433)" class="st35" width="3.1" height="7.7"/>
		<path class="st36" d="M144.9,293.3c-7.1,4.6-16.5,2.6-21-4.5c-4.6-7-2.6-16.5,4.5-21c7.1-4.6,16.5-2.6,21,4.5
			C154,279.3,152,288.7,144.9,293.3z"/>
		<path class="st36" d="M151.5,283.7c-1.8,8.2-9.8,13.5-18.1,11.7c-8.2-1.8-13.5-9.8-11.7-18.1L151.5,283.7z"/>
		<path class="st37" d="M126.8,265.4c-8.4,5.4-10.7,16.6-5.3,25c5.4,8.4,16.6,10.8,25,5.3c8.4-5.4,10.8-16.6,5.3-25
			C146.4,262.3,135.2,260,126.8,265.4z M144.9,293.3c-7.1,4.6-16.5,2.6-21-4.5c-4.6-7-2.6-16.5,4.5-21c7.1-4.6,16.5-2.6,21,4.5
			C154,279.3,152,288.7,144.9,293.3z"/>
		<path class="st37" d="M162.8,314.8c0.8,1.2-0.1,1.9-1.3,2.7l-1.3,0.8c-1.2,0.8-2.2,1.3-3,0.1L147,302.6c-0.8-1.2,0-2.1,1.2-2.9
			l1.3-0.8c1.2-0.8,2.3-1.1,3.1,0.1L162.8,314.8z"/>
		<g>
			<g>
				<path class="st0" d="M145.7,273.3c-0.3,2.3-4.1,3.7-8.5,3.2c-4.4-0.5-7.7-2.8-7.5-5.1c0.3-2.3,4.1-3.7,8.5-3.1
					C142.6,268.7,146,271,145.7,273.3z"/>
			</g>
		</g>
	</g>
</g>
<rect x="762.3" y="86.2" class="st0" width="146.2" height="13"/>
<path class="st0" d="M744.5,107.4h-31v-31h31V107.4z M715.6,105.4h27v-27h-27L715.6,105.4z"/>
<rect x="762.3" y="129.6" class="st0" width="146.2" height="13"/>
<path class="st0" d="M744.5,150.9h-31v-31h31V150.9z M715.6,148.9h27v-27h-27L715.6,148.9z"/>
<rect x="762.3" y="173" class="st0" width="146.2" height="13"/>
<path class="st0" d="M744.5,194.3h-31v-31h31V194.3z M715.6,192.3h27v-27h-27L715.6,192.3z"/>
</svg>
